<?xml version="1.0" encoding="utf-8"?>
<svg version="1.1" xmlns:xlink="http://www.w3.org/1999/xlink" width="15px" height="18px" xmlns="http://www.w3.org/2000/svg">
  <g transform="matrix(1 0 0 1 -1183 -352 )">
    <path d="M 1190.5 352  C 1194.7 352  1198 355.96  1198 361  C 1198 366.04  1194.7 370  1190.5 370  C 1186.3 370  1183 366.04  1183 361  C 1183 355.96  1186.3 352  1190.5 352  Z " fill-rule="nonzero" fill="#000000" stroke="none" />
    <path d="M 1190.5 352.5  C 1194.42 352.5  1197.5 356.24  1197.5 361  C 1197.5 365.76  1194.42 369.5  1190.5 369.5  C 1186.58 369.5  1183.5 365.76  1183.5 361  C 1183.5 356.24  1186.58 352.5  1190.5 352.5  Z " stroke-width="1" stroke="#000000" fill="none" />
  </g>
</svg>