<?xml version="1.0" encoding="utf-8"?>
<svg version="1.1" xmlns:xlink="http://www.w3.org/1999/xlink" width="42px" height="40px" xmlns="http://www.w3.org/2000/svg">
  <g transform="matrix(1 0 0 1 -1826 -1432 )">
    <path d="M 24.25390625 10.234375  C 24.41796875 10.390625  24.5 10.5902777777778  24 10.8333333333333  L 24 22.5  C 24.5 22.7430555555556  24.41796875 22.9427083333333  24.25390625 23.0989583333333  C 24.08984375 23.2552083333333  23.8802083333333 23.3333333333333  23.625 23.3333333333333  L 14.875 23.3333333333333  C 14.6197916666667 23.3333333333333  14.41015625 23.2552083333333  14.24609375 23.0989583333333  C 14.08203125 22.9427083333333  14 22.7430555555556  14 22.5  L 14 20.8333333333333  C 14 20.5902777777778  14.08203125 20.390625  14.24609375 20.234375  C 14.41015625 20.078125  14.6197916666667 20  14.875 20  L 21 20  L 21 10.8333333333333  C 21 10.5902777777778  21.08203125 10.390625  21.24609375 10.234375  C 21.41015625 10.078125  21.6197916666667 10  21.875 10  L 23.625 10  C 23.8802083333333 10  24.08984375 10.078125  24.25390625 10.234375  Z M 33.87890625 27.109375  C 35.2096354166667 24.9392361111111  35.875 22.5694444444444  35.875 20  C 35.875 17.4305555555556  35.2096354166667 15.0607638888889  33.87890625 12.890625  C 32.5481770833333 10.7204861111111  30.7434895833333 9.00173611111111  28.46484375 7.734375  C 26.1861979166667 6.46701388888889  23.6979166666667 5.83333333333333  21 5.83333333333333  C 18.3020833333333 5.83333333333333  15.8138020833333 6.46701388888889  13.53515625 7.734375  C 11.2565104166667 9.00173611111111  9.45182291666667 10.7204861111111  8.12109375 12.890625  C 6.79036458333333 15.0607638888889  6.125 17.4305555555556  6.125 20  C 6.125 22.5694444444444  6.79036458333333 24.9392361111111  8.12109375 27.109375  C 9.45182291666667 29.2795138888889  11.2565104166667 30.9982638888889  13.53515625 32.265625  C 15.8138020833333 33.5329861111111  18.3020833333333 34.1666666666667  21 34.1666666666667  C 23.6979166666667 34.1666666666667  26.1861979166667 33.5329861111111  28.46484375 32.265625  C 30.7434895833333 30.9982638888889  32.5481770833333 29.2795138888889  33.87890625 27.109375  Z M 39.18359375 9.9609375  C 41.0611979166667 13.0251736111111  42 16.3715277777778  42 20  C 42 23.6284722222222  41.0611979166667 26.9748263888889  39.18359375 30.0390625  C 37.3059895833333 33.1032986111111  34.7584635416667 35.5295138888889  31.541015625 37.3177083333333  C 28.3235677083333 39.1059027777778  24.8098958333333 40  21 40  C 17.1901041666667 40  13.6764322916667 39.1059027777778  10.458984375 37.3177083333333  C 7.24153645833333 35.5295138888889  4.69401041666667 33.1032986111111  2.81640625 30.0390625  C 0.938802083333333 26.9748263888889  0 23.6284722222222  0 20  C 0 16.3715277777778  0.938802083333333 13.0251736111111  2.81640625 9.9609375  C 4.69401041666667 6.89670138888889  7.24153645833333 4.47048611111111  10.458984375 2.68229166666667  C 13.6764322916667 0.894097222222219  17.1901041666667 0  21 0  C 24.8098958333333 0  28.3235677083333 0.894097222222219  31.541015625 2.68229166666667  C 34.7584635416667 4.47048611111111  37.3059895833333 6.89670138888889  39.18359375 9.9609375  Z " fill-rule="nonzero" fill="#8c8c8c" stroke="none" transform="matrix(1 0 0 1 1826 1432 )" />
  </g>
</svg>