<?xml version="1.0" encoding="utf-8"?>
<svg version="1.1" xmlns:xlink="http://www.w3.org/1999/xlink" width="41px" height="50px" xmlns="http://www.w3.org/2000/svg">
  <g transform="matrix(1 0 0 1 -833 -698 )">
    <path d="M 40.4707880434783 39.8158482142857  C 40.8235960144928 40.1692708333333  41 40.5877976190476  41 41.0714285714286  C 41 41.5550595238095  40.8235960144928 41.9735863095238  40.4707880434783 42.3270089285714  C 40.1179800724638 42.680431547619  39.7001811594203 42.8571428571429  39.2173913043478 42  L 26.3491847826087 42  C 26.3677536231884 43.1733630952381  26.4234601449275 43.9871651785714  26.5163043478261 45.2985491071429  C 26.6091485507246 46.6099330357143  26.6555706521739 47.6190476190476  26.6555706521739 48.3258928571429  C 26.6555706521739 48.7909226190476  26.4884510869565 49.1861979166667  26.1542119565217 49.51171875  C 25.819972826087 49.8372395833333  25.4207427536232 50  24.9565217391304 50  L 16.0434782608696 50  C 15.5792572463768 50  15.180027173913 49.8372395833333  14.8457880434783 49.51171875  C 14.5115489130435 49.1861979166667  14.3444293478261 48.7909226190476  14.3444293478261 48.3258928571429  C 14.3444293478261 47.6190476190476  14.3908514492754 46.6099330357143  14.4836956521739 45.2985491071429  C 14.5765398550725 43.9871651785714  14.6322463768116 43.1733630952381  14.6508152173913 42  L 1.78260869565217 42  C 1.29981884057971 42.8571428571429  0.882019927536232 42.680431547619  0.529211956521739 42.3270089285714  C 0.176403985507246 41.9735863095238  0 41.5550595238095  0 41.0714285714286  C 0 40.5877976190476  0.176403985507246 40.1692708333333  0.529211956521739 39.8158482142857  L 11.726222826087 28.5714285714286  L 5.34782608695652 28.5714285714286  C 4.86503623188406 28.5714285714286  4.44723731884058 28.3947172619048  4.09442934782609 28.0412946428571  C 3.74162137681159 27.6878720238095  3.56521739130435 27.2693452380952  3.56521739130435 26.7857142857143  C 3.56521739130435 26.3020833333333  3.74162137681159 25.883556547619  4.09442934782609 25.5301339285714  L 15.2914402173913 14.2857142857143  L 9.80434782608696 14.2857142857143  C 9.32155797101449 14.2857142857143  8.90375905797102 14.1090029761905  8.55095108695652 13.7555803571429  C 8.19814311594203 13.4021577380952  8.02173913043478 12.9836309523809  8.02173913043478 12.5  C 8.02173913043478 12.016369047619  8.19814311594203 11.5978422619048  8.55095108695652 11.2444196428571  L 19.2466032608696 0.53013392857143  C 19.5994112318841 0.176711309523814  20.0172101449275 0  20.5 0  C 20.9827898550725 0  21.4005887681159 0.176711309523814  21.7533967391304 0.53013392857143  L 32.4490489130435 11.2444196428571  C 32.801856884058 11.5978422619048  32.9782608695652 12.016369047619  32.9782608695652 12.5  C 32.9782608695652 12.9836309523809  32.801856884058 13.4021577380952  32.4490489130435 13.7555803571429  C 32.096240942029 14.1090029761905  31.6784420289855 14.2857142857143  31.195652173913 14.2857142857143  L 25.7085597826087 14.2857142857143  L 36.9055706521739 25.5301339285714  C 37.2583786231884 25.883556547619  37.4347826086956 26.3020833333333  37.4347826086956 26.7857142857143  C 37.4347826086956 27.2693452380952  37.2583786231884 27.6878720238095  36.9055706521739 28.0412946428571  C 36.5527626811594 28.3947172619048  36.1349637681159 28.5714285714286  35.6521739130435 28.5714285714286  L 29.273777173913 28.5714285714286  L 40.4707880434783 39.8158482142857  Z " fill-rule="nonzero" fill="#000000" stroke="none" transform="matrix(1 0 0 1 833 698 )" />
  </g>
</svg>