<?xml version="1.0" encoding="utf-8"?>
<svg version="1.1" xmlns:xlink="http://www.w3.org/1999/xlink" width="15px" height="32px" xmlns="http://www.w3.org/2000/svg">
  <g transform="matrix(1 0 0 1 -923 -491 )">
    <path d="M 14.7422680412371 15.2625250501002  C 14.914089347079 15.4762859051436  15 15.7221108884436  15 16  C 15 16.2778891115564  14.914089347079 16.5237140948564  14.7422680412371 16.7374749498998  L 2.7319587628866 31.6793587174349  C 2.56013745704467 31.8931195724783  2.36254295532646 32  2.13917525773196 32  C 1.91580756013746 32  1.71821305841924 31.8931195724783  1.54639175257732 31.6793587174349  L 0.257731958762887 30.0761523046092  C 0.0859106529209623 29.8623914495658  0 29.6165664662659  0 29.3386773547094  C 0 29.060788243153  0.0859106529209623 28.814963259853  0.257731958762887 28.6012024048096  L 10.3865979381443 16  L 0.257731958762887 3.39879759519038  C 0.0859106529209623 3.18503674014696  0 2.93921175684703  0 2.66132264529058  C 0 2.38343353373413  0.0859106529209623 2.1376085504342  0.257731958762887 1.92384769539078  L 1.54639175257732 0.320641282565131  C 1.71821305841924 0.106880427521709  1.91580756013746 0  2.13917525773196 0  C 2.36254295532646 0  2.56013745704467 0.106880427521709  2.7319587628866 0.320641282565131  L 14.7422680412371 15.2625250501002  Z " fill-rule="nonzero" fill="#000000" stroke="none" transform="matrix(1 0 0 1 923 491 )" />
  </g>
</svg>