<?xml version="1.0" encoding="utf-8"?>
<svg version="1.1" xmlns:xlink="http://www.w3.org/1999/xlink" width="100px" height="86px" xmlns="http://www.w3.org/2000/svg">
  <g transform="matrix(1 0 0 1 -954 -2192 )">
    <path d="M 15 29  L 15 71  L 85 71  L 85 29  L 15 29  Z M 97.3772321428571 2.63151041666667  C 99.1257440476191 4.38585069444444  100 6.49479166666667  100 8.95833333333333  L 100 77.0416666666667  C 100 79.5052083333333  99.1257440476191 81.6141493055556  97.3772321428571 83.3684895833333  C 95.6287202380953 85.1228298611111  93.5267857142857 86  91.0714285714286 86  L 8.92857142857143 86  C 6.47321428571429 86  4.37127976190476 85.1228298611111  2.62276785714286 83.3684895833333  C 0.874255952380952 81.6141493055556  0 79.5052083333333  0 77.0416666666667  L 0 8.95833333333333  C 0 6.49479166666667  0.874255952380952 4.38585069444444  2.62276785714286 2.63151041666667  C 4.37127976190476 0.87717013888888  6.47321428571429 0  8.92857142857143 0  L 91.0714285714286 0  C 93.5267857142857 0  95.6287202380953 0.87717013888888  97.3772321428571 2.63151041666667  Z " fill-rule="nonzero" fill="#000000" stroke="none" transform="matrix(1 0 0 1 954 2192 )" />
  </g>
</svg>