<?xml version="1.0" encoding="utf-8"?>
<svg version="1.1" xmlns:xlink="http://www.w3.org/1999/xlink" width="66px" height="100px" xmlns="http://www.w3.org/2000/svg">
  <defs>
    <linearGradient gradientUnits="userSpaceOnUse" x1="33" y1="15" x2="33" y2="100" id="LinearGradient13">
      <stop id="Stop14" stop-color="#ffff80" offset="0" />
      <stop id="Stop15" stop-color="#000000" offset="1" />
    </linearGradient>
  </defs>
  <g transform="matrix(1 0 0 1 -965 -1485 )">
    <path d="M 45.0205078125 23.3072916666667  C 46.6318359375 24.9565972222222  47.4375 26.9097222222222  47.4375 29.1666666666667  C 47.4375 29.7309027777778  47.2333984375 30.2191840277778  46.8251953125 30.6315104166667  C 46.4169921875 31.0438368055555  45.93359375 31.25  45.375 31.25  C 44.81640625 31.25  44.3330078125 31.0438368055555  43.9248046875 30.6315104166667  C 43.5166015625 30.2191840277778  43.3125 29.7309027777778  43.3125 29.1666666666667  C 43.3125 27.1701388888889  42.15234375 25.6293402777778  39.83203125 24.5442708333333  C 37.51171875 23.4592013888889  35.234375 22.9166666666667  33 22.9166666666667  C 32.44140625 22.9166666666667  31.9580078125 22.7105034722222  31.5498046875 22.2981770833333  C 31.1416015625 21.8858506944444  30.9375 21.3975694444444  30.9375 20.8333333333333  C 30.9375 20.2690972222222  31.1416015625 19.7808159722222  31.5498046875 19.3684895833333  C 31.9580078125 18.9561631944444  32.44140625 18.75  33 18.75  C 35.1484375 18.75  37.2861328125 19.0972222222222  39.4130859375 19.7916666666667  C 41.5400390625 20.4861111111111  43.4091796875 21.6579861111111  45.0205078125 23.3072916666667  Z M 53.3671875 40.8854166666667  C 56.2890625 37.4565972222222  57.75 33.5503472222222  57.75 29.1666666666667  C 57.75 26.0416666666667  57.0087890625 23.1336805555555  55.5263671875 20.4427083333333  C 54.0439453125 17.7517361111111  52.1103515625 15.5490451388889  49.7255859375 13.8346354166667  C 47.3408203125 12.1202256944444  44.6982421875 10.7747395833333  41.7978515625 9.79817708333334  C 38.8974609375 8.82161458333334  35.96484375 8.33333333333334  33 8.33333333333334  C 30.03515625 8.33333333333334  27.1025390625 8.82161458333334  24.2021484375 9.79817708333334  C 21.3017578125 10.7747395833333  18.6591796875 12.1202256944444  16.2744140625 13.8346354166667  C 13.8896484375 15.5490451388889  11.9560546875 17.7517361111111  10.4736328125 20.4427083333333  C 8.9912109375 23.1336805555555  8.25 26.0416666666667  8.25 29.1666666666667  C 8.25 33.5503472222222  9.7109375 37.4565972222222  12.6328125 40.8854166666667  C 13.0625 41.3628472222222  13.7177734375 42.0789930555556  14.5986328125 43.0338541666667  C 15.4794921875 43.9887152777778  16.134765625 44.7048611111111  16.564453125 45.1822916666667  C 22.064453125 51.8229166666667  25.09375 58.2899305555556  25.65234375 64  L 40.34765625 64  C 40.90625 58.2899305555556  43.935546875 51.8229166666667  49.435546875 45.1822916666667  C 49.865234375 44.7048611111111  50.5205078125 43.9887152777778  51.4013671875 43.0338541666667  C 52.2822265625 42.0789930555556  52.9375 41.3628472222222  53.3671875 40.8854166666667  Z M 63.1318359375 17.1549479166667  C 65.0439453125 20.8658854166667  66 24.8697916666667  66 29.1666666666667  C 66 35.8940972222222  63.787109375 41.7100694444444  59.361328125 46.6145833333333  C 57.427734375 48.7413194444444  55.8271484375 50.6293402777778  54.5595703125 52.2786458333333  C 53.2919921875 53.9279513888889  52.013671875 56.0004340277778  50.724609375 58.49609375  C 49.435546875 60.9917534722222  48.705078125 63.3246527777778  48.533203125 65.4947916666667  C 50.552734375 66.7100694444444  51.5625 68.4895833333333  51.5625 70.8333333333333  C 51.5625 72.4392361111111  51.025390625 73.828125  49.951171875 75  C 51.025390625 76.171875  51.5625 77.5607638888889  51.5625 79.1666666666667  C 51.5625 81.4236111111111  50.595703125 83.1814236111111  48.662109375 84.4401041666667  C 49.220703125 85.4383680555555  49.5 86.4583333333333  49.5 87.5  C 49.5 89.4965277777778  48.8232421875 91.0373263888889  47.4697265625 92.1223958333333  C 46.1162109375 93.2074652777778  44.451171875 93.75  42.474609375 93.75  C 41.615234375 95.6597222222222  40.326171875 97.1788194444445  38.607421875 98.3072916666667  C 36.888671875 99.4357638888889  35.01953125 100  33 100  C 30.98046875 100  29.111328125 99.4357638888889  27.392578125 98.3072916666667  C 25.673828125 97.1788194444445  24.384765625 95.6597222222222  23.525390625 93.75  C 21.548828125 93.75  19.8837890625 93.2074652777778  18.5302734375 92.1223958333333  C 17.1767578125 91.0373263888889  16.5 89.4965277777778  16.5 87.5  C 16.5 86.4583333333333  16.779296875 85.4383680555555  17.337890625 84.4401041666667  C 15.404296875 83.1814236111111  14.4375 81.4236111111111  14.4375 79.1666666666667  C 14.4375 77.5607638888889  14.974609375 76.171875  16.048828125 75  C 14.974609375 73.828125  14.4375 72.4392361111111  14.4375 70.8333333333333  C 14.4375 68.4895833333333  15.447265625 66.7100694444444  17.466796875 65.4947916666667  C 17.294921875 63.3246527777778  16.564453125 60.9917534722222  15.275390625 58.49609375  C 13.986328125 56.0004340277778  12.7080078125 53.9279513888889  11.4404296875 52.2786458333333  C 10.1728515625 50.6293402777778  8.572265625 48.7413194444444  6.638671875 46.6145833333333  C 2.212890625 41.7100694444444  0 35.8940972222222  0 29.1666666666667  C 0 24.8697916666667  0.9560546875 20.8658854166667  2.8681640625 17.1549479166667  C 4.7802734375 13.4440104166667  7.2939453125 10.3624131944444  10.4091796875 7.91015625  C 13.5244140625 5.45789930555555  17.0478515625 3.52647569444443  20.9794921875 2.11588541666666  C 24.9111328125 0.705295138888884  28.91796875 0  33 0  C 37.08203125 0  41.0888671875 0.705295138888884  45.0205078125 2.11588541666666  C 48.9521484375 3.52647569444443  52.4755859375 5.45789930555555  55.5908203125 7.91015625  C 58.7060546875 10.3624131944444  61.2197265625 13.4440104166667  63.1318359375 17.1549479166667  Z " fill-rule="nonzero" fill="url(#LinearGradient13)" stroke="none" transform="matrix(1 0 0 1 965 1485 )" />
  </g>
</svg>