<?xml version="1.0" encoding="utf-8"?>
<svg version="1.1" xmlns:xlink="http://www.w3.org/1999/xlink" width="100px" height="46px" xmlns="http://www.w3.org/2000/svg">
  <g transform="matrix(1 0 0 1 -953 -1632 )">
    <path d="M 0 37  L 22.9166666666667 37  L 22.9166666666667 41  L 0 41  L 0 37  Z M 29.1666666666667 33  L 45.8333333333333 33  C 46.9618055555556 33.4545454545455  47.9383680555556 33.6614583333333  48.7630208333333 34.0752840909091  C 49.5876736111111 34.4891098484849  50 34.9791666666667  50 35.5454545454545  L 50 43.9090909090909  C 50 44.4753787878788  49.5876736111111 44.9654356060606  48.7630208333333 45.3792613636364  C 47.9383680555556 45.7930871212121  46.9618055555556 46  45.8333333333333 46  L 29.1666666666667 46  C 28.0381944444444 46  27.0616319444444 45.7930871212121  26.2369791666667 45.3792613636364  C 25.4123263888889 44.9654356060606  25 44.4753787878788  25 43.9090909090909  L 25 35.5454545454545  C 25 34.9791666666667  25.4123263888889 34.4891098484849  26.2369791666667 34.0752840909091  C 27.0616319444444 33.6614583333333  28.0381944444444 33.4545454545455  29.1666666666667 33  Z M 0 21  L 56.25 21  L 56.25 25  L 0 25  L 0 21  Z M 0 5  L 14.5833333333333 5  L 14.5833333333333 9  L 0 9  L 0 5  Z M 52.0833333333333 37  L 100 37  L 100 41  L 52.0833333333333 41  L 52.0833333333333 37  Z M 20.8333333333333 0  L 37.5 0  C 38.6284722222222 0  39.6050347222222 0.206912878787874  40.4296875 0.620738636363639  C 41.2543402777778 1.03456439393939  41.6666666666667 1.52462121212121  41.6666666666667 2.09090909090909  L 41.6666666666667 10.4545454545455  C 41.6666666666667 11.0208333333333  41.2543402777778 11.5108901515151  40.4296875 11.9247159090909  C 39.6050347222222 12.3385416666667  38.6284722222222 12.5454545454545  37.5 13  L 20.8333333333333 13  C 19.7048611111111 12.5454545454545  18.7282986111111 12.3385416666667  17.9036458333333 11.9247159090909  C 17.0789930555556 11.5108901515151  16.6666666666667 11.0208333333333  16.6666666666667 10.4545454545455  L 16.6666666666667 2.09090909090909  C 16.6666666666667 1.52462121212121  17.0789930555556 1.03456439393939  17.9036458333333 0.620738636363639  C 18.7282986111111 0.206912878787874  19.7048611111111 0  20.8333333333333 0  Z M 62.5 17  L 79.1666666666667 17  C 80.2951388888889 16.7272727272727  81.2717013888889 16.9341856060606  82.0963541666667 17.3480113636364  C 82.9210069444445 17.7618371212121  83.3333333333333 18.2518939393939  83.3333333333333 18.8181818181818  L 83.3333333333333 27.1818181818182  C 83.3333333333333 27.7481060606061  82.9210069444445 28.2381628787879  82.0963541666667 28.6519886363636  C 81.2717013888889 29.0658143939394  80.2951388888889 29.2727272727273  79.1666666666667 29  L 62.5 29  C 61.3715277777778 29.2727272727273  60.3949652777778 29.0658143939394  59.5703125 28.6519886363636  C 58.7456597222222 28.2381628787879  58.3333333333333 27.7481060606061  58.3333333333333 27.1818181818182  L 58.3333333333333 18.8181818181818  C 58.3333333333333 18.2518939393939  58.7456597222222 17.7618371212121  59.5703125 17.3480113636364  C 60.3949652777778 16.9341856060606  61.3715277777778 16.7272727272727  62.5 17  Z M 85.4166666666667 21  L 100 21  L 100 25  L 85.4166666666667 25  L 85.4166666666667 21  Z M 43.75 5  L 100 5  L 100 9  L 43.75 9  L 43.75 5  Z " fill-rule="nonzero" fill="#000000" stroke="none" transform="matrix(1 0 0 1 953 1632 )" />
  </g>
</svg>