<?xml version="1.0" encoding="utf-8"?>
<svg version="1.1" xmlns:xlink="http://www.w3.org/1999/xlink" width="331px" height="128px" xmlns="http://www.w3.org/2000/svg">
  <g transform="matrix(1 0 0 1 -121 -547 )">
    <path d="M 62 64  L 104 64  L 104 106  L 62 106  L 62 64  Z M 125 22  L 165 22  L 165 106  L 125 106  L 125 22  Z M 21 117  L 331 117  L 331 128  L 0 128  L 0 0  L 21 0  L 21 117  Z M 186 43  L 227 43  L 227 106  L 186 106  L 186 43  Z M 248 11  L 289 11  L 289 106  L 248 106  L 248 11  Z " fill-rule="nonzero" fill="#000000" stroke="none" transform="matrix(1 0 0 1 121 547 )" />
  </g>
</svg>