<?xml version="1.0" encoding="utf-8"?>
<svg version="1.1" xmlns:xlink="http://www.w3.org/1999/xlink" width="326px" height="43px" xmlns="http://www.w3.org/2000/svg">
  <g transform="matrix(1 0 0 1 -123 -840 )">
    <path d="M 21 39  L 326 39  L 326 43  L 0 43  L 0 0  L 21 0  L 21 39  Z M 304.1923828125 3.83528645833333  C 305.1474609375 4.00325520833333  305.625 4.21788194444444  305 4.47916666666667  L 305 16.6569010416667  C 305.625 17.048828125  304.59033203125 17.3241102430556  302.52099609375 17.4827473958333  C 300.45166015625 17.6413845486111  298.568033854167 17.5713975694444  296.8701171875 17.2727864583333  L 277.609375 13.8854166666667  L 176.8486328125 31.6061197916667  C 175.787434895833 31.7927517361111  174.567057291667 31.8860677083333  173.1875 31.8860677083333  C 171.807942708333 31.8860677083333  170.587565104167 31.7927517361111  169.5263671875 31.6061197916667  L 132.4375 25.0833333333333  L 66.21875 36.7291666666667  L 35.65625 31.3541666666667  L 128.7763671875 14.9772135416667  C 129.837565104167 14.7905815972222  131.057942708333 14.697265625  132.4375 14.697265625  C 133.817057291667 14.697265625  135.037434895833 14.7905815972222  136.0986328125 14.9772135416667  L 173.1875 21.5  L 247.046875 8.51041666666666  L 227.7861328125 5.123046875  C 226.088216145833 4.82443576388888  225.690266927083 4.4931640625  226.59228515625 4.12923177083333  C 227.494303385417 3.76529947916667  229.0595703125 3.58333333333333  231.2880859375 4  L 300.53125 4  C 302.016927083333 3.58333333333333  303.2373046875 3.66731770833333  304.1923828125 3.83528645833333  Z " fill-rule="nonzero" fill="#000000" stroke="none" transform="matrix(1 0 0 1 123 840 )" />
  </g>
</svg>