<?xml version="1.0" encoding="utf-8"?>
<svg version="1.1" xmlns:xlink="http://www.w3.org/1999/xlink" width="30px" height="40px" xmlns="http://www.w3.org/2000/svg">
  <defs>
    <filter x="950px" y="375px" width="30px" height="40px" filterUnits="userSpaceOnUse" id="filter10">
      <feOffset dx="1" dy="1" in="SourceAlpha" result="shadowOffsetInner" />
      <feGaussianBlur stdDeviation="2.5" in="shadowOffsetInner" result="shadowGaussian" />
      <feComposite in2="shadowGaussian" operator="atop" in="SourceAlpha" result="shadowComposite" />
      <feColorMatrix type="matrix" values="0 0 0 0 0  0 0 0 0 0  0 0 0 0 0  0 0 0 0.698039215686274 0  " in="shadowComposite" />
    </filter>
    <g id="widget11">
      <path d="M 964 407.95558796737  C 960.2 400.857284902997  954.5 396.598303064373  954.5 389.5  C 954.5 385.785714285714  956.4 379.5  964 379.5  C 971.6 379.5  973.5 385.785714285714  973.5 389.5  C 973.5 396.598303064373  967.8 400.857284902997  964 407.95558796737  Z " fill-rule="nonzero" fill="#009dd9" stroke="none" />
      <path d="M 964 409  C 960 401.5  954 397  954 389.5  C 954 385.6  956 379  964 379  C 972 379  974 385.6  974 389.5  C 974 397  968 401.5  964 409  Z M 964 406.91117593474  C 967.6 400.214569805994  973 396.196606128746  973 389.5  C 973 385.971428571429  971.2 380  964 380  C 956.8 380  955 385.971428571429  955 389.5  C 955 396.196606128746  960.4 400.214569805994  964 406.91117593474  Z " fill-rule="nonzero" fill="#ffffff" stroke="none" />
    </g>
  </defs>
  <g transform="matrix(1 0 0 1 -950 -375 )">
    <use xlink:href="#widget11" filter="url(#filter10)" />
    <use xlink:href="#widget11" />
  </g>
</svg>