<?xml version="1.0" encoding="utf-8"?>
<svg version="1.1" xmlns:xlink="http://www.w3.org/1999/xlink" width="26px" height="22px" xmlns="http://www.w3.org/2000/svg">
  <g transform="matrix(1 0 0 1 -451 -706 )">
    <path d="M 25.849537037037 10.2704811443433  C 25.9498456790123 10.4612050281751  26 10.6805374945817  26 10.9284785435631  C 26 11.1954919809276  25.9498456790123 11.4243606415258  25.849537037037 11.6150845253576  L 20.0717592592593 21.742522756827  C 19.9112654320988 22.0095361941916  19.735725308642 22.0667533593411  19.5451388888889 21.9141742522757  C 19.3545524691358 21.742522756827  19.2592592592593 21.4659731252709  19.2592592592593 21.0845253576073  L 19.2592592592593 14.6762028608583  L 0.481481481481481 14.6762028608583  C 0.341049382716049 14.6762028608583  0.225694444444444 14.5903771131339  0.135416666666667 14.4187256176853  C 0.0451388888888889 14.2470741222367  0 14.0277416558301  0 13.7607282184655  L 0 8.26788036410923  C 0 8.00086692674469  0.0451388888888889 7.7815344603381  0.135416666666667 7.60988296488947  C 0.225694444444444 7.43823146944083  0.341049382716049 7.35240572171652  0.481481481481481 7.35240572171652  L 19.2592592592593 7.35240572171652  L 19.2592592592593 0.944083224967491  C 19.2592592592593 0.543563068920677  19.3545524691358 0.267013437364541  19.5451388888889 0.11443433029909  C 19.735725308642 -0.0381447767663659  19.9112654320988 0.00953619419158902  20.0717592592593 0.257477243172952  L 25.849537037037 10.2704811443433  Z " fill-rule="nonzero" fill="#000000" stroke="none" transform="matrix(1 0 0 1 451 706 )" />
  </g>
</svg>