<?xml version="1.0" encoding="utf-8"?>
<svg version="1.1" xmlns:xlink="http://www.w3.org/1999/xlink" width="28px" height="22px" xmlns="http://www.w3.org/2000/svg">
  <g transform="matrix(1 0 0 1 -96 -705 )">
    <path d="M 27.8541666666667 7.5812743823147  C 27.9513888888889 7.75292587776333  28 7.97225834416992  28 8.23927178153446  L 28 13.7321196358908  C 28 13.9991330732553  27.9513888888889 14.2184655396619  27.8541666666667 14.3901170351105  C 27.7569444444444 14.5617685305592  27.6327160493827 14.6475942782835  27.4814814814815 14.6475942782835  L 7.25925925925926 14.6475942782835  L 7.25925925925926 21.0559167750325  C 7.25925925925926 21.4564369310793  7.15663580246914 21.7329865626355  6.95138888888889 21.8855656697009  C 6.74614197530864 22.0381447767664  6.5570987654321 21.9904638058084  6.38425925925926 21.742522756827  L 0.162037037037037 11.7295188556567  C 0.0540123456790125 11.5387949718249  0 11.3194625054183  0 11.0715214564369  C 0 10.8045080190724  0.0540123456790125 10.5756393584742  0.162037037037037 10.3849154746424  L 6.38425925925926 0.257477243172952  C 6.5570987654321 -0.00953619419159635  6.74614197530864 -0.0667533593411402  6.95138888888889 0.0858257477243183  C 7.15663580246914 0.257477243172952  7.25925925925926 0.534026874729085  7.25925925925926 0.915474642392717  L 7.25925925925926 7.32379713914174  L 27.4814814814815 7.32379713914174  C 27.6327160493827 7.32379713914174  27.7569444444444 7.40962288686606  27.8541666666667 7.5812743823147  Z " fill-rule="nonzero" fill="#000000" stroke="none" transform="matrix(1 0 0 1 96 705 )" />
  </g>
</svg>