<?xml version="1.0" encoding="utf-8"?>
<svg version="1.1" xmlns:xlink="http://www.w3.org/1999/xlink" width="39px" height="22px" xmlns="http://www.w3.org/2000/svg">
  <g transform="matrix(1 0 0 1 -746 -205 )">
    <path d="M 38.796875 7.5812743823147  C 38.9322916666667 7.75292587776333  39 7.97225834416992  39 8.23927178153446  L 39 13.7321196358908  C 39 13.9991330732553  38.9322916666667 14.2184655396619  38.796875 14.3901170351105  C 38.6614583333333 14.5617685305592  38.4884259259259 14.6475942782835  38.2777777777778 14.6475942782835  L 10.1111111111111 14.6475942782835  L 10.1111111111111 21.0559167750325  C 10.1111111111111 21.4564369310793  9.9681712962963 21.7329865626355  9.68229166666667 21.8855656697009  C 9.39641203703704 22.0381447767664  9.13310185185185 21.9904638058084  8.89236111111111 21.742522756827  L 0.225694444444444 11.7295188556567  C 0.0752314814814817 11.5387949718249  0 11.3194625054183  0 11.0715214564369  C 0 10.8045080190724  0.0752314814814817 10.5756393584742  0.225694444444444 10.3849154746424  L 8.89236111111111 0.257477243172952  C 9.13310185185185 -0.00953619419159635  9.39641203703704 -0.0667533593411402  9.68229166666667 0.0858257477243183  C 9.9681712962963 0.257477243172952  10.1111111111111 0.534026874729085  10.1111111111111 0.915474642392717  L 10.1111111111111 7.32379713914174  L 38.2777777777778 7.32379713914174  C 38.4884259259259 7.32379713914174  38.6614583333333 7.40962288686606  38.796875 7.5812743823147  Z " fill-rule="nonzero" fill="#000000" stroke="none" transform="matrix(1 0 0 1 746 205 )" />
  </g>
</svg>