<?xml version="1.0" encoding="utf-8"?>
<svg version="1.1" xmlns:xlink="http://www.w3.org/1999/xlink" width="25px" height="25px" viewBox="1070 559  25 25" xmlns="http://www.w3.org/2000/svg">
  <path d="M 1082.5 559  C 1089.5 559  1095 564.5  1095 571.5  C 1095 578.5  1089.5 584  1082.5 584  C 1075.5 584  1070 578.5  1070 571.5  C 1070 564.5  1075.5 559  1082.5 559  Z " fill-rule="nonzero" fill="#ffffff" stroke="none" />
  <path d="M 1082.5 559.5  C 1089.22 559.5  1094.5 564.78  1094.5 571.5  C 1094.5 578.22  1089.22 583.5  1082.5 583.5  C 1075.78 583.5  1070.5 578.22  1070.5 571.5  C 1070.5 564.78  1075.78 559.5  1082.5 559.5  Z " stroke-width="1" stroke="#797979" fill="none" />
  <path d="M 1082.5 577.75  C 1079 577.75  1076.25 575  1076.25 571.5  C 1076.25 568  1079 565.25  1082.5 565.25  C 1086 565.25  1088.75 568  1088.75 571.5  C 1088.75 575  1086 577.75  1082.5 577.75  " fill-rule="nonzero" fill="#797979" stroke="none" />
</svg>