<?xml version="1.0" encoding="utf-8"?>
<svg version="1.1" xmlns:xlink="http://www.w3.org/1999/xlink" width="25px" height="25px" viewBox="1070 610  25 25" xmlns="http://www.w3.org/2000/svg">
  <path d="M 1082.5 610  C 1089.5 610  1095 615.5  1095 622.5  C 1095 629.5  1089.5 635  1082.5 635  C 1075.5 635  1070 629.5  1070 622.5  C 1070 615.5  1075.5 610  1082.5 610  Z " fill-rule="nonzero" fill="#f0f0f0" stroke="none" />
  <path d="M 1082.5 610.5  C 1089.22 610.5  1094.5 615.78  1094.5 622.5  C 1094.5 629.22  1089.22 634.5  1082.5 634.5  C 1075.78 634.5  1070.5 629.22  1070.5 622.5  C 1070.5 615.78  1075.78 610.5  1082.5 610.5  Z " stroke-width="1" stroke="#797979" fill="none" />
  <path d="M 1082.5 628.75  C 1079 628.75  1076.25 626  1076.25 622.5  C 1076.25 619  1079 616.25  1082.5 616.25  C 1086 616.25  1088.75 619  1088.75 622.5  C 1088.75 626  1086 628.75  1082.5 628.75  " fill-rule="nonzero" fill="#797979" stroke="none" />
</svg>