<?xml version="1.0" encoding="utf-8"?>
<svg version="1.1" xmlns:xlink="http://www.w3.org/1999/xlink" width="25px" height="25px" viewBox="1070 660  25 25" xmlns="http://www.w3.org/2000/svg">
  <path d="M 1082.5 660  C 1089.5 660  1095 665.5  1095 672.5  C 1095 679.5  1089.5 685  1082.5 685  C 1075.5 685  1070 679.5  1070 672.5  C 1070 665.5  1075.5 660  1082.5 660  Z " fill-rule="nonzero" fill="#ffffff" stroke="none" />
  <path d="M 1082.5 660.5  C 1089.22 660.5  1094.5 665.78  1094.5 672.5  C 1094.5 679.22  1089.22 684.5  1082.5 684.5  C 1075.78 684.5  1070.5 679.22  1070.5 672.5  C 1070.5 665.78  1075.78 660.5  1082.5 660.5  Z " stroke-width="1" stroke="#797979" fill="none" />
  <path d="M 1082.5 678.75  C 1079 678.75  1076.25 676  1076.25 672.5  C 1076.25 669  1079 666.25  1082.5 666.25  C 1086 666.25  1088.75 669  1088.75 672.5  C 1088.75 676  1086 678.75  1082.5 678.75  " fill-rule="nonzero" fill="#797979" stroke="none" />
</svg>