<?xml version="1.0" encoding="utf-8"?>
<svg version="1.1" xmlns:xlink="http://www.w3.org/1999/xlink" width="25px" height="25px" viewBox="1070 761  25 25" xmlns="http://www.w3.org/2000/svg">
  <path d="M 1082.5 761  C 1089.5 761  1095 766.5  1095 773.5  C 1095 780.5  1089.5 786  1082.5 786  C 1075.5 786  1070 780.5  1070 773.5  C 1070 766.5  1075.5 761  1082.5 761  Z " fill-rule="nonzero" fill="#ffffff" stroke="none" />
  <path d="M 1082.5 761.5  C 1089.22 761.5  1094.5 766.78  1094.5 773.5  C 1094.5 780.22  1089.22 785.5  1082.5 785.5  C 1075.78 785.5  1070.5 780.22  1070.5 773.5  C 1070.5 766.78  1075.78 761.5  1082.5 761.5  Z " stroke-width="1" stroke="#797979" fill="none" />
  <path d="M 1082.5 779.75  C 1079 779.75  1076.25 777  1076.25 773.5  C 1076.25 770  1079 767.25  1082.5 767.25  C 1086 767.25  1088.75 770  1088.75 773.5  C 1088.75 777  1086 779.75  1082.5 779.75  " fill-rule="nonzero" fill="#797979" stroke="none" />
</svg>