<?xml version="1.0" encoding="utf-8"?>
<svg version="1.1" xmlns:xlink="http://www.w3.org/1999/xlink" width="25px" height="25px" viewBox="1070 809  25 25" xmlns="http://www.w3.org/2000/svg">
  <path d="M 1082.5 809  C 1089.5 809  1095 814.5  1095 821.5  C 1095 828.5  1089.5 834  1082.5 834  C 1075.5 834  1070 828.5  1070 821.5  C 1070 814.5  1075.5 809  1082.5 809  Z " fill-rule="nonzero" fill="#f0f0f0" stroke="none" />
  <path d="M 1082.5 809.5  C 1089.22 809.5  1094.5 814.78  1094.5 821.5  C 1094.5 828.22  1089.22 833.5  1082.5 833.5  C 1075.78 833.5  1070.5 828.22  1070.5 821.5  C 1070.5 814.78  1075.78 809.5  1082.5 809.5  Z " stroke-width="1" stroke="#797979" fill="none" />
  <path d="M 1082.5 827.75  C 1079 827.75  1076.25 825  1076.25 821.5  C 1076.25 818  1079 815.25  1082.5 815.25  C 1086 815.25  1088.75 818  1088.75 821.5  C 1088.75 825  1086 827.75  1082.5 827.75  " fill-rule="nonzero" fill="#797979" stroke="none" />
</svg>