<?xml version="1.0" encoding="utf-8"?>
<svg version="1.1" xmlns:xlink="http://www.w3.org/1999/xlink" width="40px" height="40px" xmlns="http://www.w3.org/2000/svg">
  <g transform="matrix(1 0 0 1 -1060 -278 )">
    <path d="M 18.0048076923077 3.43178621659634  C 18.3092948717949 3.78809188935771  18.4615384615385 4.21003281762775  19 4.69760900140647  L 19 35.3023909985935  C 18.4615384615385 35.7899671823722  18.3092948717949 36.2119081106423  18.0048076923077 36.5682137834037  C 17.7003205128205 36.924519456165  17.3397435897436 37.1026722925457  16.9230769230769 37.1026722925457  C 16.5064102564103 37.1026722925457  16.1458333333333 36.924519456165  15.8413461538462 36.5682137834037  L 7.83653846153846 27.2011251758087  L 1.53846153846154 27.2011251758087  C 1.12179487179487 27.2011251758087  0.761217948717949 27.022972339428  0.456730769230769 26.6666666666667  C 0.15224358974359 26.3103609939053  0 25.8884200656353  0 25.4008438818565  L 0 14.5991561181435  C 0 14.1115799343647  0.15224358974359 13.6896390060947  0.456730769230769 13.3333333333333  C 0.761217948717949 12.977027660572  1.12179487179487 12.7988748241913  1.53846153846154 12.7988748241913  L 7.83653846153846 12.7988748241913  L 15.8413461538462 3.43178621659634  C 16.1458333333333 3.07548054383497  16.5064102564103 2.89732770745429  16.9230769230769 2.89732770745429  C 17.3397435897436 2.89732770745429  17.7003205128205 3.07548054383497  18.0048076923077 3.43178621659634  Z M 26.6706730769231 16.0056258790436  C 27.3517628205128 17.2433192686357  27.6923076923077 18.5747773089545  27.6923076923077 20  C 27.6923076923077 21.4252226910455  27.3517628205128 22.7519924988279  26.6706730769231 23.9803094233474  C 25.9895833333333 25.2086263478668  25.088141025641 26.0853258321613  23.9663461538462 26.6104078762307  C 23.8060897435897 26.7041725269573  23.6057692307692 26.7510548523207  23.3653846153846 26.7510548523207  C 22.948717948718 26.7510548523207  22.588141025641 26.5775902484763  22.2836538461538 26.2306610407876  C 21.9791666666667 25.8837318330989  21.8269230769231 25.4571026722925  21.8269230769231 24.9507735583685  C 21.8269230769231 24.5569620253165  21.9230769230769 24.2240975152368  22.1153846153846 23.9521800281294  C 22.3076923076923 23.680262541022  22.5400641025641 23.4458509142053  22.8125 23.2489451476793  C 23.0849358974359 23.0520393811533  23.3573717948718 22.8363806844819  23.6298076923077 22.6019690576653  C 23.9022435897436 22.3675574308486  24.1346153846154 22.0300046882325  24.3269230769231 21.5893108298172  C 24.5192307692308 21.1486169714018  24.6153846153846 20.6188466947961  24.6153846153846 20  C 24.6153846153846 19.3811533052039  24.5192307692308 18.8513830285982  24.3269230769231 18.4106891701828  C 24.1346153846154 17.9699953117675  23.9022435897436 17.6324425691514  23.6298076923077 17.3980309423347  C 23.3573717948718 17.1636193155181  23.0849358974359 16.9479606188467  22.8125 16.7510548523207  C 22.5400641025641 16.5541490857947  22.3076923076923 16.319737458978  22.1153846153846 16.0478199718706  C 21.9230769230769 15.7759024847632  21.8269230769231 15.4430379746835  21.8269230769231 15.0492264416315  C 21.8269230769231 14.5428973277075  21.9791666666667 14.1162681669011  22.2836538461538 13.7693389592124  C 22.588141025641 13.4224097515237  22.948717948718 13.2489451476793  23.3653846153846 13.2489451476793  C 23.6057692307692 13.2489451476793  23.8060897435897 13.2958274730427  23.9663461538462 13.3895921237693  C 25.088141025641 13.8959212376934  25.9895833333333 14.7679324894515  26.6706730769231 16.0056258790436  Z M 31.8028846153846 12.0534458509142  C 33.1650641025641 14.4819503047351  33.8461538461538 17.1308016877637  33.8461538461538 20  C 33.8461538461538 22.8691983122363  33.1650641025641 25.5180496952649  31.8028846153846 27.9465541490858  C 30.4407051282051 30.3750586029067  28.6378205128205 32.1425222691045  26.3942307692308 33.2489451476793  C 26.1858974358974 33.342709798406  25.9855769230769 33.3895921237693  25.7932692307692 33.3895921237693  C 25.3605769230769 33.3895921237693  24.9919871794872 33.2114392873887  24.6875 32.8551336146273  C 24.3830128205128 32.4988279418659  24.2307692307692 32.0768870135959  24.2307692307692 31.5893108298172  C 24.2307692307692 30.8579465541491  24.5432692307692 30.3047351148617  25.1682692307692 29.929676511955  C 26.0657051282051 29.3858415377403  26.6746794871795 28.9732770745429  26.9951923076923 28.6919831223629  C 28.1810897435897 27.6793248945148  29.1065705128205 26.4088138771683  29.7716346153846 24.8804500703235  C 30.4366987179487 23.3520862634787  30.7692307692308 21.7252695733708  30.7692307692308 20  C 30.7692307692308 18.2747304266292  30.4366987179487 16.6479137365213  29.7716346153846 15.1195499296765  C 29.1065705128205 13.5911861228317  28.1810897435897 12.3206751054852  26.9951923076923 11.3080168776371  C 26.6746794871795 11.0267229254571  26.0657051282051 10.6141584622597  25.1682692307692 10.070323488045  C 24.5432692307692 9.6952648851383  24.2307692307692 9.14205344585092  24.2307692307692 8.41068917018284  C 24.2307692307692 7.92311298640412  24.3830128205128 7.50117205813408  24.6875 7.14486638537271  C 24.9919871794872 6.78856071261134  25.3525641025641 6.61040787623066  25.7692307692308 6.61040787623066  C 25.9775641025641 6.61040787623066  26.1858974358974 6.65729020159399  26.3942307692308 6.75105485232068  C 28.6378205128205 7.85747773089545  30.4407051282051 9.62494139709329  31.8028846153846 12.0534458509142  Z M 36.9471153846154 8.11533052039381  C 38.9823717948718 11.7252695733708  40 15.6868260665729  40 20  C 40 24.3131739334271  38.9823717948718 28.2747304266292  36.9471153846154 31.8846694796062  C 34.911858974359 35.4946085325832  32.2035256410256 38.1528363806845  28.8221153846154 39.85935302391  C 28.6137820512821 39.9531176746367  28.4054487179487 40  28.1971153846154 40  C 27.7804487179487 40  27.4198717948718 39.8218471636193  27.1153846153846 39.4655414908579  C 26.8108974358974 39.1092358180966  26.6586538461538 38.6872948898265  26.6586538461538 38.1997187060478  C 26.6586538461538 37.5246132208158  26.9711538461538 36.9714017815284  27.5961538461538 36.5400843881857  C 27.7083333333333 36.4650726676043  27.8886217948718 36.3666197843413  28.1370192307692 36.2447257383966  C 28.3854166666667 36.1228316924519  28.5657051282051 36.0243788091889  28.6778846153846 35.9493670886076  C 29.4150641025641 35.4805438349742  30.0721153846154 35.0023441162682  30.6490384615385 34.5147679324894  C 32.6201923076923 32.8082512892639  34.1586538461538 30.6797937177684  35.2644230769231 28.1293952180028  C 36.3701923076923 25.5789967182372  36.9230769230769 22.8691983122363  36.9230769230769 20  C 36.9230769230769 17.1308016877637  36.3701923076923 14.4210032817628  35.2644230769231 11.8706047819972  C 34.1586538461538 9.3202062822316  32.6201923076923 7.19174871073605  30.6490384615385 5.48523206751055  C 30.0721153846154 4.99765588373183  29.4150641025641 4.51945616502578  28.6778846153846 4.0506329113924  C 28.5657051282051 3.97562119081106  28.3854166666667 3.87716830754805  28.1370192307692 3.75527426160338  C 27.8886217948718 3.63338021565869  27.7083333333333 3.53492733239568  27.5961538461538 3.45991561181435  C 26.9711538461538 3.02859821847163  26.6586538461538 2.47538677918425  26.6586538461538 1.80028129395218  C 26.6586538461538 1.31270511017346  26.8108974358974 0.890764181903418  27.1153846153846 0.534458509142053  C 27.4198717948718 0.178152836380683  27.7804487179487 0  28.1971153846154 0  C 28.4054487179487 0  28.6137820512821 0.0468823253633355  28.8221153846154 0.140646976090015  C 32.2035256410256 1.84716361931551  34.911858974359 4.50539146741678  36.9471153846154 8.11533052039381  Z " fill-rule="nonzero" fill="#000000" stroke="none" transform="matrix(1 0 0 1 1060 278 )" />
  </g>
</svg>