<?xml version="1.0" encoding="utf-8"?>
<svg version="1.1" xmlns:xlink="http://www.w3.org/1999/xlink" width="25px" height="38px" xmlns="http://www.w3.org/2000/svg">
  <g transform="matrix(1 0 0 1 -743 -278 )">
    <path d="M 24.3815104166667 0.59375  C 24.7938368055556 0.989583333333328  25 1.45833333333333  25 2  L 25 36  C 25 36.5416666666667  24.7938368055556 37.0104166666667  24.3815104166667 37.40625  C 23.9691840277778 37.8020833333333  23.4809027777778 38  22.9166666666667 38  C 22.3524305555556 38  21.8641493055556 37.8020833333333  21.4518229166667 37.40625  L 10.6119791666667 27  L 2.08333333333333 27  C 1.51909722222222 27  1.03081597222222 26.8020833333333  0.618489583333333 26.40625  C 0.206163194444444 26.0104166666667  0 25.5416666666667  0 25  L 0 13  C 0 12.4583333333333  0.206163194444444 11.9895833333333  0.618489583333333 11.59375  C 1.03081597222222 11.1979166666667  1.51909722222222 11  2.08333333333333 11  L 10.6119791666667 11  L 21.4518229166667 0.59375  C 21.8641493055556 0.197916666666664  22.3524305555556 0  22.9166666666667 0  C 23.4809027777778 0  23.9691840277778 0.197916666666664  24.3815104166667 0.59375  Z " fill-rule="nonzero" fill="#000000" stroke="none" transform="matrix(1 0 0 1 743 278 )" />
  </g>
</svg>