<?xml version="1.0" encoding="utf-8"?>
<svg version="1.1" xmlns:xlink="http://www.w3.org/1999/xlink" width="50px" height="56px" xmlns="http://www.w3.org/2000/svg">
  <g transform="matrix(1 0 0 1 -375 -823 )">
    <path d="M 376 848  A 24 24 0 0 1 400 824 A 24 24 0 0 1 424 848 L 424 854  A 24 24 0 0 1 400 878 A 24 24 0 0 1 376 854 L 376 848  Z " fill-rule="nonzero" fill="#7f7f7f" stroke="none" />
    <path d="M 375.5 848  A 24.5 24.5 0 0 1 400 823.5 A 24.5 24.5 0 0 1 424.5 848 L 424.5 854  A 24.5 24.5 0 0 1 400 878.5 A 24.5 24.5 0 0 1 375.5 854 L 375.5 848  Z " stroke-width="1" stroke-dasharray="3,1" stroke="#999999" fill="none" stroke-dashoffset="0.5" />
  </g>
</svg>