<?xml version="1.0" encoding="utf-8"?>
<svg version="1.1" xmlns:xlink="http://www.w3.org/1999/xlink" width="50px" height="56px" xmlns="http://www.w3.org/2000/svg">
  <g transform="matrix(1 0 0 1 -123 -823 )">
    <path d="M 124 848  A 24 24 0 0 1 148 824 A 24 24 0 0 1 172 848 L 172 854  A 24 24 0 0 1 148 878 A 24 24 0 0 1 124 854 L 124 848  Z " fill-rule="nonzero" fill="#f2f2f2" stroke="none" />
    <path d="M 123.5 848  A 24.5 24.5 0 0 1 148 823.5 A 24.5 24.5 0 0 1 172.5 848 L 172.5 854  A 24.5 24.5 0 0 1 148 878.5 A 24.5 24.5 0 0 1 123.5 854 L 123.5 848  Z " stroke-width="1" stroke-dasharray="3,1" stroke="#999999" fill="none" stroke-dashoffset="0.5" />
  </g>
</svg>