<?xml version="1.0" encoding="utf-8"?>
<svg version="1.1" xmlns:xlink="http://www.w3.org/1999/xlink" width="23px" height="28px" xmlns="http://www.w3.org/2000/svg">
  <g transform="matrix(1 0 0 1 -93 -189 )">
    <path d="M 11.5 26.75  C 11.6474358974359 26.75  11.7211538461538 26.6666666666667  11.7211538461538 26.5  C 11.7211538461538 26.3333333333333  11.6474358974359 26.25  11.5 26.25  C 10.9563301282051 26.25  10.4886818910256 26.0286458333333  10.0970552884615 25.5859375  C 9.70542868589744 25.1432291666667  9.50961538461538 24.6145833333333  9.50961538461538 24  C 9.50961538461538 23.8333333333333  9.43589743589744 23.75  9.28846153846154 23.75  C 9.14102564102564 23.75  9.06730769230769 23.8333333333333  9.06730769230769 24  C 9.06730769230769 24.7604166666667  9.30458733974359 25.4088541666667  9.77914663461538 25.9453125  C 10.2537059294872 26.4817708333333  10.8273237179487 26.75  11.5 26.75  Z M 21.7421875 20.625  C 22.1199919871795 21.1041666666667  22.5392628205128 21.5625  23 22  C 23 22.5416666666667  22.8249198717949 23.0104166666667  22.4747596153846 23.40625  C 22.1245993589744 23.8020833333333  21.7099358974359 24  21.2307692307692 24  L 15.0384615384615 24  C 15.0384615384615 25.1041666666667  14.6929086538462 26.046875  14.0018028846154 26.828125  C 13.3106971153846 27.609375  12.4767628205128 28  11.5 28  C 10.5232371794872 28  9.68930288461538 27.609375  8.99819711538462 26.828125  C 8.30709134615385 26.046875  7.96153846153846 25.1041666666667  7.96153846153846 24  L 1.76923076923077 24  C 1.2900641025641 24  0.875400641025641 23.8020833333333  0.525240384615385 23.40625  C 0.175080128205128 23.0104166666667  0 22.5416666666667  0 22  C 0.46073717948718 21.5625  0.880008012820513 21.1041666666667  1.2578125 20.625  C 1.63561698717949 20.1458333333333  2.02724358974359 19.5234375  2.43269230769231 18.7578125  C 2.83814102564103 17.9921875  3.18139022435897 17.1666666666667  3.46243990384615 16.28125  C 3.74348958333333 15.3958333333333  3.97385817307692 14.3229166666667  4.15354567307692 13.0625  C 4.33323317307692 11.8020833333333  4.42307692307692 10.4479166666667  4.42307692307692 9  C 4.42307692307692 7.41666666666667  4.96213942307692 5.9453125  6.04026442307692 4.5859375  C 7.11838942307692 3.2265625  8.53285256410256 2.40104166666666  10.2836538461538 2.109375  C 10.2099358974359 1.91145833333333  10.1730769230769 1.70833333333333  10.1730769230769 1.5  C 10.1730769230769 1.08333333333333  10.3020833333333 0.729166666666666  10.5600961538462 0.4375  C 10.818108974359 0.145833333333334  11.1314102564103 0  11.5 0  C 11.8685897435897 0  12.181891025641 0.145833333333334  12.4399038461538 0.4375  C 12.6979166666667 0.729166666666666  12.8269230769231 1.08333333333333  12.8269230769231 1.5  C 12.8269230769231 1.70833333333333  12.7900641025641 1.91145833333333  12.7163461538462 2.109375  C 14.4671474358974 2.40104166666666  15.8816105769231 3.2265625  16.9597355769231 4.5859375  C 18.0378605769231 5.9453125  18.5769230769231 7.41666666666667  18.5769230769231 9  C 18.5769230769231 10.4479166666667  18.6667668269231 11.8020833333333  18.8464543269231 13.0625  C 19.0261418269231 14.3229166666667  19.2565104166667 15.3958333333333  19.5375600961538 16.28125  C 19.818609775641 17.1666666666667  20.161858974359 17.9921875  20.5673076923077 18.7578125  C 20.9727564102564 19.5234375  21.3643830128205 20.1458333333333  21.7421875 20.625  Z " fill-rule="nonzero" fill="#000000" stroke="none" transform="matrix(1 0 0 1 93 189 )" />
  </g>
</svg>