<?xml version="1.0" encoding="utf-8"?>
<svg version="1.1" xmlns:xlink="http://www.w3.org/1999/xlink" width="91px" height="139px" xmlns="http://www.w3.org/2000/svg">
  <g transform="matrix(1 0 0 1 -242 -406 )">
    <path d="M 52.1946614583333 131.235546875  C 54.0509982638889 129.534244791667  54.9791666666667 127.4890625  54.9791666666667 125.1  C 54.9791666666667 122.7109375  54.0509982638889 120.665755208333  52.1946614583333 118.964453125  C 50.3383246527778 117.263151041667  48.1067708333333 116.4125  45.5 116.4125  C 42.8932291666667 116.4125  40.6616753472222 117.263151041667  38.8053385416667 118.964453125  C 36.9490017361111 120.665755208333  36.0208333333333 122.7109375  36.0208333333333 125.1  C 36.0208333333333 127.4890625  36.9490017361111 129.534244791667  38.8053385416667 131.235546875  C 40.6616753472222 132.936848958333  42.8932291666667 133.7875  45.5 133.7875  C 48.1067708333333 133.7875  50.3383246527778 132.936848958333  52.1946614583333 131.235546875  Z M 78.4993489583333 110.168359375  C 79.2497829861111 109.480598958333  79.625 108.666145833333  79 107.725  L 79 31.275  C 79.625 30.3338541666667  79.2497829861111 29.5194010416667  78.4993489583333 28.831640625  C 77.7489149305556 28.1438802083333  76.8602430555556 27.8  75.8333333333333 28  L 15.1666666666667 28  C 14.1397569444444 27.8  13.2510850694444 28.1438802083333  12.5006510416667 28.831640625  C 11.7502170138889 29.5194010416667  11.375 30.3338541666667  12 31.275  L 12 107.725  C 11.375 108.666145833333  11.7502170138889 109.480598958333  12.5006510416667 110.168359375  C 13.2510850694444 110.856119791667  14.1397569444444 111.2  15.1666666666667 111  L 75.8333333333333 111  C 76.8602430555556 111.2  77.7489149305556 110.856119791667  78.4993489583333 110.168359375  Z M 54.9791666666667 18  C 56.2430555555556 17.375  56.875 16.7958333333333  56.875 15.6375  C 56.875 14.4791666666667  56.2430555555556 13.9  54.9791666666667 14  L 36.0208333333333 14  C 34.7569444444445 13.9  34.125 14.4791666666667  34.125 15.6375  C 34.125 16.7958333333333  34.7569444444445 17.375  36.0208333333333 18  L 54.9791666666667 18  Z M 86.4973958333333 4.1265625  C 89.4991319444444 6.87760416666666  91 10.1354166666667  91 13.9  L 91 125.1  C 91 128.864583333333  89.4991319444444 132.122395833333  86.4973958333333 134.8734375  C 83.4956597222222 137.624479166667  79.9409722222222 139  75.8333333333333 139  L 15.1666666666667 139  C 11.0590277777778 139  7.50434027777778 137.624479166667  4.50260416666667 134.8734375  C 1.50086805555556 132.122395833333  0 128.864583333333  0 125.1  L 0 13.9  C 0 10.1354166666667  1.50086805555556 6.87760416666666  4.50260416666667 4.1265625  C 7.50434027777778 1.37552083333332  11.0590277777778 0  15.1666666666667 0  L 75.8333333333333 0  C 79.9409722222222 0  83.4956597222222 1.37552083333332  86.4973958333333 4.1265625  Z " fill-rule="nonzero" fill="#000000" stroke="none" transform="matrix(1 0 0 1 242 406 )" />
  </g>
</svg>