<?xml version="1.0" encoding="utf-8"?>
<svg version="1.1" xmlns:xlink="http://www.w3.org/1999/xlink" width="50px" height="50px" xmlns="http://www.w3.org/2000/svg">
  <g transform="matrix(1 0 0 1 -358 -455 )">
    <path d="M 11.639460610362 38.3522727272727  C 12.9642772651999 39.6780303030303  13.6266855926189 41.2878787878788  13.6266855926189 43.1818181818182  C 13.6266855926189 45.0757575757576  12.9642772651999 46.6856060606061  11.639460610362 48.0113636363636  C 10.314643955524 49.3371212121212  8.70593801750651 50  6.81334279630944 50  C 4.92074757511237 50  3.31204163709487 49.3371212121212  1.98722498225692 48.0113636363636  C 0.662408327418973 46.6856060606061  0 45.0757575757576  0 43.1818181818182  C 0 41.2878787878788  0.662408327418973 39.6780303030303  1.98722498225692 38.3522727272727  C 3.31204163709487 37.0265151515152  4.92074757511237 36.3636363636364  6.81334279630944 36.3636363636364  C 8.70593801750651 36.3636363636364  10.314643955524 37.0265151515152  11.639460610362 38.3522727272727  Z M 28.9389638041164 36.6832386363636  C 30.5358410220014 40.139678030303  31.4880529926662 43.7618371212121  31.7955997161107 47.5497159090909  C 31.8429145966406 48.2125946969697  31.6418263543885 48.7807765151515  31.1923349893542 49.2542613636364  C 30.7665010645848 49.7514204545455  30.2105512183582 50  29.5244854506742 50  L 24.7338537970192 50  C 24.1424177903951 50  23.6337828246984 49.8046875  23.207948899929 49.4140625  C 22.7821149751597 49.0234375  22.5455405725101 48.532196969697  22.4982256919801 47.9403409090909  C 21.9777620061509 42.5189393939394  19.7953631417081 37.8847064393939  15.9510290986515 34.0376420454545  C 12.106695055595 30.1905776515151  7.47575112372841 28.0066287878788  2.05819730305181 27.4857954545455  C 1.46676129642773 27.438446969697  0.975869410929737 27.2017045454545  0.585521646557842 26.7755681818182  C 0.195173882185947 26.3494318181818  0 25.8404356060606  0 25.2485795454545  L 0 20.4545454545455  C 0 19.7679924242424  0.248403122782115 19.2116477272727  0.745209368346345 18.7855113636364  C 1.14738585285072 18.3830492424242  1.65602081854743 18.1818181818182  2.27111426543648 18.1818181818182  L 2.4485450674237 18.1818181818182  C 6.23373550981784 18.4895833333333  9.85332387035723 19.4424715909091  13.3073101490419 21.0404829545455  C 16.7612964277265 22.6384943181818  19.8249349420393 24.7869318181818  22.4982256919801 27.4857954545455  C 25.1951738821859 30.1609848484848  27.3420865862314 33.2267992424242  28.9389638041164 36.6832386363636  Z M 45.7061745919092 29.8117897727273  C 48.2375207002602 35.4817708333333  49.656967116158 41.4180871212121  49.9645138396026 47.6207386363636  C 50.0118287201325 48.2599431818182  49.7989117577478 48.8162878787879  49.3257629524485 49.2897727272727  C 48.8999290276792 49.7632575757576  48.3558079015851 50  47.6933995741661 50  L 42.6188786373314 50  C 42.0037851904424 50  41.477407144547 49.7928503787879  41.0397444996451 49.3785511363636  C 40.6020818547433 48.9642518939394  40.3714218121599 48.4611742424242  40.347764371895 47.8693181818182  C 40.0638750887154 42.7793560606061  38.8691743553348 37.9438920454545  36.763662171753 33.3629261363636  C 34.6581499881713 28.7819602272727  31.9198012775018 24.8046875  28.5486160397445 21.4311079545455  C 25.1774308019872 18.0575284090909  21.2029808374734 15.3172348484848  16.625266146203 13.2102272727273  C 12.0475514549326 11.1032196969697  7.21551928081382 9.89583333333333  2.1291696238467 9.58806818181818  C 1.53773361722262 9.56439393939394  1.03501301159215 9.33357007575757  0.621007806955287 8.89559659090909  C 0.207002602318429 8.4576231060606  0 7.94270833333333  0 7.35085227272727  L 0 2.27272727272727  C 0 1.60984848484848  0.236574402649633 1.06534090909091  0.7097232079489 0.639204545454547  C 1.13555713271824 0.213068181818182  1.65602081854743 0  2.27111426543648 0  L 2.37757274662881 0  C 8.57582209604921 0.307765151515144  14.5079252424888 1.72821969696969  20.1738821859475 4.26136363636363  C 25.8398391294062 6.79450757575757  30.8729595457771 10.2746212121212  35.2732434350603 14.7017045454545  C 39.6971847646085 19.1051136363636  43.1748284835581 24.1418087121212  45.7061745919092 29.8117897727273  Z " fill-rule="nonzero" fill="#000000" stroke="none" transform="matrix(1 0 0 1 358 455 )" />
  </g>
</svg>