<?xml version="1.0" encoding="utf-8"?>
<svg version="1.1" xmlns:xlink="http://www.w3.org/1999/xlink" width="21px" height="18px" xmlns="http://www.w3.org/2000/svg">
  <g transform="matrix(1 0 0 1 -786 -330 )">
    <path d="M 796.5 330  C 802.38 330  807 333.96  807 339  C 807 344.04  802.38 348  796.5 348  C 790.62 348  786 344.04  786 339  C 786 333.96  790.62 330  796.5 330  Z " fill-rule="nonzero" fill="#000000" stroke="none" />
    <path d="M 796.5 330.5  C 802.1 330.5  806.5 334.24  806.5 339  C 806.5 343.76  802.1 347.5  796.5 347.5  C 790.9 347.5  786.5 343.76  786.5 339  C 786.5 334.24  790.9 330.5  796.5 330.5  Z " stroke-width="1" stroke="#000000" fill="none" />
  </g>
</svg>