<?xml version="1.0" encoding="utf-8"?>
<svg version="1.1" xmlns:xlink="http://www.w3.org/1999/xlink" width="10px" height="20px" xmlns="http://www.w3.org/2000/svg">
  <g transform="matrix(1 0 0 1 -925 -451 )">
    <path d="M 9.82817869415807 9.53907815631263  C 9.94272623138603 9.67267869071476  10 9.82631930527722  10 10  C 10 10.1736806947228  9.94272623138603 10.3273213092852  9.82817869415807 10.4609218436874  L 1.8213058419244 19.7995991983968  C 1.70675830469645 19.9331997327989  1.57502863688431 20  1.42611683848797 20  C 1.27720504009164 20  1.1454753722795 19.9331997327989  1.03092783505155 19.7995991983968  L 0.171821305841924 18.7975951903808  C 0.0572737686139748 18.6639946559786  0 18.5103540414162  0 18.3366733466934  C 0 18.1629926519706  0.0572737686139748 18.0093520374081  0.171821305841924 17.875751503006  L 6.92439862542955 10  L 0.171821305841924 2.12424849699399  C 0.0572737686139748 1.99064796259185  0 1.83700734802939  0 1.66332665330661  C 0 1.48964595858383  0.0572737686139748 1.33600534402137  0.171821305841924 1.20240480961924  L 1.03092783505155 0.200400801603207  C 1.1454753722795 0.0668002672010681  1.27720504009164 0  1.42611683848797 0  C 1.57502863688431 0  1.70675830469645 0.0668002672010681  1.8213058419244 0.200400801603207  L 9.82817869415807 9.53907815631263  Z " fill-rule="nonzero" fill="#000000" stroke="none" transform="matrix(1 0 0 1 925 451 )" />
  </g>
</svg>