<?xml version="1.0" encoding="utf-8"?>
<svg version="1.1" xmlns:xlink="http://www.w3.org/1999/xlink" width="30px" height="25px" xmlns="http://www.w3.org/2000/svg">
  <g transform="matrix(1 0 0 1 -919 -171 )">
    <path d="M 29.458064516129 3.45117845117845  C 29.8193548387097 3.84399551066218  30 4.32098765432099  30 4.88215488215488  C 30 5.44332210998877  29.8193548387097 5.92031425364759  29.458064516129 6.31313131313131  L 15.4451612903226 21.5488215488215  L 12.8129032258065 24.4107744107744  C 12.4516129032258 24.8035914702581  12.0129032258065 25  11.4967741935484 25  C 10.9806451612903 25  10.541935483871 24.8035914702581  10.1806451612903 24.4107744107744  L 7.54838709677419 21.5488215488215  L 0.541935483870968 13.9309764309764  C 0.180645161290323 13.5381593714927  0 13.0611672278339  0 12.5  C 0 11.9388327721661  0.180645161290323 11.4618406285073  0.541935483870968 11.0690235690236  L 3.1741935483871 8.20707070707071  C 3.53548387096774 7.81425364758698  3.9741935483871 7.61784511784512  4.49032258064516 7.61784511784512  C 5.00645161290323 7.61784511784512  5.44516129032258 7.81425364758698  5.80645161290323 8.20707070707071  L 11.4967741935484 14.4149831649832  L 24.1935483870968 0.589225589225589  C 24.5548387096774 0.196408529741862  24.9935483870968 0  25.5096774193548 0  C 26.0258064516129 0  26.4645161290323 0.196408529741862  26.8258064516129 0.589225589225589  L 29.458064516129 3.45117845117845  Z " fill-rule="nonzero" fill="#000000" stroke="none" transform="matrix(1 0 0 1 919 171 )" />
  </g>
</svg>