<?xml version="1.0" encoding="utf-8"?>
<svg version="1.1" xmlns:xlink="http://www.w3.org/1999/xlink" width="30px" height="25px" xmlns="http://www.w3.org/2000/svg">
  <g transform="matrix(1 0 0 1 -584 -171 )">
    <path d="M 29.2929292929293 18.6868686868687  C 29.7643097643098 19.0796857463524  30 19.5566778900112  30 20.1178451178451  C 30 20.679012345679  29.7643097643098 21.1560044893378  29.2929292929293 21.5488215488215  L 25.8585858585859 24.4107744107744  C 25.3872053872054 24.8035914702581  24.8148148148148 25  24.1414141414141 25  C 23.4680134680135 25  22.8956228956229 24.8035914702581  22.4242424242424 24.4107744107744  L 15 18.2239057239057  L 7.57575757575758 24.4107744107744  C 7.10437710437711 24.8035914702581  6.53198653198653 25  5.85858585858586 25  C 5.18518518518519 25  4.61279461279461 24.8035914702581  4.14141414141414 24.4107744107744  L 0.707070707070707 21.5488215488215  C 0.235690235690236 21.1560044893378  0 20.679012345679  0 20.1178451178451  C 0 19.5566778900112  0.235690235690236 19.0796857463524  0.707070707070707 18.6868686868687  L 8.13131313131313 12.5  L 0.707070707070707 6.31313131313131  C 0.235690235690236 5.92031425364759  0 5.44332210998878  0 4.88215488215488  C 0 4.32098765432099  0.235690235690236 3.84399551066217  0.707070707070707 3.45117845117845  L 4.14141414141414 0.589225589225589  C 4.61279461279461 0.196408529741862  5.18518518518519 0  5.85858585858586 0  C 6.53198653198653 0  7.10437710437711 0.196408529741862  7.57575757575758 0.589225589225589  L 15 6.77609427609428  L 22.4242424242424 0.589225589225589  C 22.8956228956229 0.196408529741862  23.4680134680135 0  24.1414141414141 0  C 24.8148148148148 0  25.3872053872054 0.196408529741862  25.8585858585859 0.589225589225589  L 29.2929292929293 3.45117845117845  C 29.7643097643098 3.84399551066217  30 4.32098765432099  30 4.88215488215488  C 30 5.44332210998878  29.7643097643098 5.92031425364759  29.2929292929293 6.31313131313131  L 21.8686868686869 12.5  L 29.2929292929293 18.6868686868687  Z " fill-rule="nonzero" fill="#000000" stroke="none" transform="matrix(1 0 0 1 584 171 )" />
  </g>
</svg>