<?xml version="1.0" encoding="utf-8"?>
<svg version="1.1" xmlns:xlink="http://www.w3.org/1999/xlink" width="20px" height="37px" xmlns="http://www.w3.org/2000/svg">
  <g transform="matrix(1 0 0 1 -641 -470 )">
    <path d="M 11.4713541666667 34.933203125  C 11.8793402777778 34.4803385416667  12.0833333333333 33.9359375  12.0833333333333 33.3  C 12.0833333333333 32.6640625  11.8793402777778 32.1196614583333  11.4713541666667 31.666796875  C 11.0633680555556 31.2139322916667  10.5729166666667 30.9875  10 30.9875  C 9.42708333333333 30.9875  8.93663194444444 31.2139322916667  8.52864583333333 31.666796875  C 8.12065972222222 32.1196614583333  7.91666666666667 32.6640625  7.91666666666667 33.3  C 7.91666666666667 33.9359375  8.12065972222222 34.4803385416667  8.52864583333333 34.933203125  C 8.93663194444444 35.3860677083333  9.42708333333333 35.6125  10 35.6125  C 10.5729166666667 35.6125  11.0633680555556 35.3860677083333  11.4713541666667 34.933203125  Z M 17.2526041666667 29.325390625  C 17.4175347222222 29.1423177083333  17.5 28.9255208333333  17.5 28.675  L 17.5 8.325  C 17.5 8.07447916666666  17.4175347222222 7.85768229166666  17.2526041666667 7.674609375  C 17.0876736111111 7.49153645833333  16.8923611111111 7.4  16.6666666666667 8  L 3.33333333333333 8  C 3.10763888888889 7.4  2.91232638888889 7.49153645833333  2.74739583333333 7.674609375  C 2.58246527777778 7.85768229166666  2.5 8.07447916666666  2.5 8.325  L 2.5 28.675  C 2.5 28.9255208333333  2.58246527777778 29.1423177083333  2.74739583333333 29.325390625  C 2.91232638888889 29.5084635416667  3.10763888888889 29.6  3.33333333333333 29  L 16.6666666666667 29  C 16.8923611111111 29.6  17.0876736111111 29.5084635416667  17.2526041666667 29.325390625  Z M 12.0833333333333 4.625  C 12.3611111111111 4.625  12.5 4.47083333333333  12.5 4.1625  C 12.5 3.85416666666667  12.3611111111111 3.7  12.0833333333333 3.7  L 7.91666666666667 3.7  C 7.63888888888889 3.7  7.5 3.85416666666667  7.5 4.1625  C 7.5 4.47083333333333  7.63888888888889 4.625  7.91666666666667 4.625  L 12.0833333333333 4.625  Z M 19.0104166666667 1.0984375  C 19.6701388888889 1.83072916666667  20 2.69791666666667  20 3.7  L 20 33.3  C 20 34.3020833333333  19.6701388888889 35.1692708333333  19.0104166666667 35.9015625  C 18.3506944444444 36.6338541666667  17.5694444444444 37  16.6666666666667 37  L 3.33333333333333 37  C 2.43055555555556 37  1.64930555555556 36.6338541666667  0.989583333333333 35.9015625  C 0.329861111111111 35.1692708333333  0 34.3020833333333  0 33.3  L 0 3.7  C 0 2.69791666666667  0.329861111111111 1.83072916666667  0.989583333333333 1.0984375  C 1.64930555555556 0.366145833333329  2.43055555555556 0  3.33333333333333 0  L 16.6666666666667 0  C 17.5694444444444 0  18.3506944444444 0.366145833333329  19.0104166666667 1.0984375  Z " fill-rule="nonzero" fill="#d7d7d7" stroke="none" transform="matrix(1 0 0 1 641 470 )" />
  </g>
</svg>