<?xml version="1.0" encoding="utf-8"?>
<svg version="1.1" xmlns:xlink="http://www.w3.org/1999/xlink" width="48px" height="42px" xmlns="http://www.w3.org/2000/svg">
  <g transform="matrix(1 0 0 1 -627 -522 )">
    <path d="M 9.99519230769231 38.12109375  C 10.7163461538462 37.53515625  11.0769230769231 36.828125  11.0769230769231 36  C 11.0769230769231 35.171875  10.7163461538462 34.46484375  9.99519230769231 33.87890625  C 9.27403846153846 33.29296875  8.40384615384616 33  7.38461538461539 33  C 6.36538461538462 33  5.49519230769231 33.29296875  4.77403846153846 33.87890625  C 4.05288461538462 34.46484375  3.69230769230769 35.171875  3.69230769230769 36  C 3.69230769230769 36.828125  4.05288461538462 37.53515625  4.77403846153846 38.12109375  C 5.49519230769231 38.70703125  6.36538461538462 39  7.38461538461539 39  C 8.40384615384616 39  9.27403846153846 38.70703125  9.99519230769231 38.12109375  Z M 21.0721153846154 38.12109375  C 21.7932692307692 37.53515625  22.1538461538462 36.828125  22.1538461538462 36  C 22.1538461538462 35.171875  21.7932692307692 34.46484375  21.0721153846154 33.87890625  C 20.3509615384615 33.29296875  19.4807692307692 33  18.4615384615385 33  C 17.4423076923077 33  16.5721153846154 33.29296875  15.8509615384615 33.87890625  C 15.1298076923077 34.46484375  14.7692307692308 35.171875  14.7692307692308 36  C 14.7692307692308 36.828125  15.1298076923077 37.53515625  15.8509615384615 38.12109375  C 16.5721153846154 38.70703125  17.4423076923077 39  18.4615384615385 39  C 19.4807692307692 39  20.3509615384615 38.70703125  21.0721153846154 38.12109375  Z M 9.99519230769231 29.12109375  C 10.7163461538462 28.53515625  11.0769230769231 27.828125  11.0769230769231 27  C 11.0769230769231 26.171875  10.7163461538462 25.46484375  9.99519230769231 24.87890625  C 9.27403846153846 24.29296875  8.40384615384616 24  7.38461538461539 24  C 6.36538461538462 24  5.49519230769231 24.29296875  4.77403846153846 24.87890625  C 4.05288461538462 25.46484375  3.69230769230769 26.171875  3.69230769230769 27  C 3.69230769230769 27.828125  4.05288461538462 28.53515625  4.77403846153846 29.12109375  C 5.49519230769231 29.70703125  6.36538461538462 30  7.38461538461539 30  C 8.40384615384616 30  9.27403846153846 29.70703125  9.99519230769231 29.12109375  Z M 32.1490384615385 38.12109375  C 32.8701923076923 37.53515625  33.2307692307692 36.828125  33.2307692307692 36  C 33.2307692307692 35.171875  32.8701923076923 34.46484375  32.1490384615385 33.87890625  C 31.4278846153846 33.29296875  30.5576923076923 33  29.5384615384615 33  C 28.5192307692308 33  27.6490384615385 33.29296875  26.9278846153846 33.87890625  C 26.2067307692308 34.46484375  25.8461538461538 35.171875  25.8461538461538 36  C 25.8461538461538 36.828125  26.2067307692308 37.53515625  26.9278846153846 38.12109375  C 27.6490384615385 38.70703125  28.5192307692308 39  29.5384615384615 39  C 30.5576923076923 39  31.4278846153846 38.70703125  32.1490384615385 38.12109375  Z M 21.0721153846154 29.12109375  C 21.7932692307692 28.53515625  22.1538461538462 27.828125  22.1538461538462 27  C 22.1538461538462 26.171875  21.7932692307692 25.46484375  21.0721153846154 24.87890625  C 20.3509615384615 24.29296875  19.4807692307692 24  18.4615384615385 24  C 17.4423076923077 24  16.5721153846154 24.29296875  15.8509615384615 24.87890625  C 15.1298076923077 25.46484375  14.7692307692308 26.171875  14.7692307692308 27  C 14.7692307692308 27.828125  15.1298076923077 28.53515625  15.8509615384615 29.12109375  C 16.5721153846154 29.70703125  17.4423076923077 30  18.4615384615385 30  C 19.4807692307692 30  20.3509615384615 29.70703125  21.0721153846154 29.12109375  Z M 9.99519230769231 20.12109375  C 10.7163461538462 19.53515625  11.0769230769231 18.828125  11.0769230769231 18  C 11.0769230769231 17.171875  10.7163461538462 16.46484375  9.99519230769231 15.87890625  C 9.27403846153846 15.29296875  8.40384615384616 15  7.38461538461539 15  C 6.36538461538462 15  5.49519230769231 15.29296875  4.77403846153846 15.87890625  C 4.05288461538462 16.46484375  3.69230769230769 17.171875  3.69230769230769 18  C 3.69230769230769 18.828125  4.05288461538462 19.53515625  4.77403846153846 20.12109375  C 5.49519230769231 20.70703125  6.36538461538462 21  7.38461538461539 21  C 8.40384615384616 21  9.27403846153846 20.70703125  9.99519230769231 20.12109375  Z M 32.1490384615385 29.12109375  C 32.8701923076923 28.53515625  33.2307692307692 27.828125  33.2307692307692 27  C 33.2307692307692 26.171875  32.8701923076923 25.46484375  32.1490384615385 24.87890625  C 31.4278846153846 24.29296875  30.5576923076923 24  29.5384615384615 24  C 28.5192307692308 24  27.6490384615385 24.29296875  26.9278846153846 24.87890625  C 26.2067307692308 25.46484375  25.8461538461538 26.171875  25.8461538461538 27  C 25.8461538461538 27.828125  26.2067307692308 28.53515625  26.9278846153846 29.12109375  C 27.6490384615385 29.70703125  28.5192307692308 30  29.5384615384615 30  C 30.5576923076923 30  31.4278846153846 29.70703125  32.1490384615385 29.12109375  Z M 21.0721153846154 20.12109375  C 21.7932692307692 19.53515625  22.1538461538462 18.828125  22.1538461538462 18  C 22.1538461538462 17.171875  21.7932692307692 16.46484375  21.0721153846154 15.87890625  C 20.3509615384615 15.29296875  19.4807692307692 15  18.4615384615385 15  C 17.4423076923077 15  16.5721153846154 15.29296875  15.8509615384615 15.87890625  C 15.1298076923077 16.46484375  14.7692307692308 17.171875  14.7692307692308 18  C 14.7692307692308 18.828125  15.1298076923077 19.53515625  15.8509615384615 20.12109375  C 16.5721153846154 20.70703125  17.4423076923077 21  18.4615384615385 21  C 19.4807692307692 21  20.3509615384615 20.70703125  21.0721153846154 20.12109375  Z M 43.2115384615385 38.109375  C 43.9423076923077 37.515625  44.3076923076923 36.8125  44.3076923076923 36  L 44.3076923076923 27  C 44.3076923076923 26.1875  43.9423076923077 25.484375  43.2115384615385 24.890625  C 42.4807692307692 24.296875  41.6153846153846 24  40.6153846153846 24  C 39.6153846153846 24  38.75 24.296875  38.0192307692308 24.890625  C 37.2884615384615 25.484375  36.9230769230769 26.1875  36.9230769230769 27  L 36.9230769230769 36  C 36.9230769230769 36.8125  37.2884615384615 37.515625  38.0192307692308 38.109375  C 38.75 38.703125  39.6153846153846 39  40.6153846153846 39  C 41.6153846153846 39  42.4807692307692 38.703125  43.2115384615385 38.109375  Z M 32.1490384615385 20.12109375  C 32.8701923076923 19.53515625  33.2307692307692 18.828125  33.2307692307692 18  C 33.2307692307692 17.171875  32.8701923076923 16.46484375  32.1490384615385 15.87890625  C 31.4278846153846 15.29296875  30.5576923076923 15  29.5384615384615 15  C 28.5192307692308 15  27.6490384615385 15.29296875  26.9278846153846 15.87890625  C 26.2067307692308 16.46484375  25.8461538461538 17.171875  25.8461538461538 18  C 25.8461538461538 18.828125  26.2067307692308 19.53515625  26.9278846153846 20.12109375  C 27.6490384615385 20.70703125  28.5192307692308 21  29.5384615384615 21  C 30.5576923076923 21  31.4278846153846 20.70703125  32.1490384615385 20.12109375  Z M 43.7596153846154 11.5546875  C 44.125 11.2578125  44.3076923076923 10.90625  44.3076923076923 10.5  L 44.3076923076923 4.5  C 44.3076923076923 4.09375  44.125 3.7421875  43.7596153846154 3.4453125  C 43.3942307692308 3.1484375  42.9615384615385 3  42.4615384615385 3  L 5.53846153846154 3  C 5.03846153846154 3  4.60576923076923 3.1484375  4.24038461538462 3.4453125  C 3.875 3.7421875  3.69230769230769 4.09375  3.69230769230769 4.5  L 3.69230769230769 10.5  C 3.69230769230769 10.90625  3.875 11.2578125  4.24038461538462 11.5546875  C 4.60576923076923 11.8515625  5.03846153846154 12  5.53846153846154 12  L 42.4615384615385 12  C 42.9615384615385 12  43.3942307692308 11.8515625  43.7596153846154 11.5546875  Z M 43.2259615384615 20.12109375  C 43.9471153846154 19.53515625  44.3076923076923 18.828125  44.3076923076923 18  C 44.3076923076923 17.171875  43.9471153846154 16.46484375  43.2259615384615 15.87890625  C 42.5048076923077 15.29296875  41.6346153846154 15  40.6153846153846 15  C 39.5961538461538 15  38.7259615384615 15.29296875  38.0048076923077 15.87890625  C 37.2836538461538 16.46484375  36.9230769230769 17.171875  36.9230769230769 18  C 36.9230769230769 18.828125  37.2836538461538 19.53515625  38.0048076923077 20.12109375  C 38.7259615384615 20.70703125  39.5961538461538 21  40.6153846153846 21  C 41.6346153846154 21  42.5048076923077 20.70703125  43.2259615384615 20.12109375  Z M 46.9038461538462 0.890624999999998  C 47.6346153846154 1.484375  48 2.1875  48 3  L 48 39  C 48 39.8125  47.6346153846154 40.515625  46.9038461538462 41.109375  C 46.1730769230769 41.703125  45.3076923076923 42  44.3076923076923 42  L 3.69230769230769 42  C 2.69230769230769 42  1.82692307692308 41.703125  1.09615384615385 41.109375  C 0.365384615384615 40.515625  0 39.8125  0 39  L 0 3  C 0 2.1875  0.365384615384615 1.484375  1.09615384615385 0.890624999999998  C 1.82692307692308 0.296875000000002  2.69230769230769 0  3.69230769230769 0  L 44.3076923076923 0  C 45.3076923076923 0  46.1730769230769 0.296875000000002  46.9038461538462 0.890624999999998  Z " fill-rule="nonzero" fill="#d7d7d7" stroke="none" transform="matrix(1 0 0 1 627 522 )" />
  </g>
</svg>