<?xml version="1.0" encoding="utf-8"?>
<svg version="1.1" xmlns:xlink="http://www.w3.org/1999/xlink" width="11px" height="11px" xmlns="http://www.w3.org/2000/svg">
  <g transform="matrix(1 0 0 1 -666 -486 )">
    <path d="M 2.56068133427963 8.4375  C 2.85214099834398 8.72916666666667  2.99787083037615 9.08333333333333  2.99787083037615 9.5  C 2.99787083037615 9.91666666666667  2.85214099834398 10.2708333333333  2.56068133427963 10.5625  C 2.26922167021528 10.8541666666667  1.91530636385143 11  1.49893541518808 11  C 1.08256446652472 11  0.728649160160871 10.8541666666667  0.437189496096522 10.5625  C 0.145729832032174 10.2708333333333  0 9.91666666666667  0 9.5  C 0 9.08333333333333  0.145729832032174 8.72916666666667  0.437189496096522 8.4375  C 0.728649160160871 8.14583333333333  1.08256446652472 8  1.49893541518808 8  C 1.91530636385143 8  2.26922167021528 8.14583333333333  2.56068133427963 8.4375  Z M 6.36657203690561 8.0703125  C 6.71788502484031 8.83072916666667  6.92737165838656 9.62760416666667  6.99503193754436 10.4609375  C 7.00544121126094 10.6067708333333  6.96120179796546 10.7317708333333  6.86231369765791 10.8359375  C 6.76863023420866 10.9453125  6.6463212680388 11  6.49538679914833 11  L 5.44144783534422 11  C 5.31133191388692 11  5.19943222143364 10.95703125  5.10574875798439 10.87109375  C 5.01206529453513 10.78515625  4.96001892595221 10.6770833333333  4.94960965223563 10.546875  C 4.83510764135321 9.35416666666667  4.35497989117578 8.33463541666667  3.50922640170334 7.48828125  C 2.6634729122309 6.64192708333333  1.64466524722025 6.16145833333333  0.452803406671398 6.046875  C 0.3226874852141 6.03645833333333  0.214691270404542 5.984375  0.128814762242725 5.890625  C 0.0429382540809084 5.796875  0 5.68489583333333  0 5.5546875  L 0 4.5  C 0 4.34895833333333  0.0546486870120653 4.2265625  0.163946061036196 4.1328125  C 0.252424887627159 4.04427083333333  0.364324580080435 4  0.499645138396026 4  L 0.538679914833215 4  C 1.37142181215992 4.06770833333333  2.16773125147859 4.27734375  2.92760823278921 4.62890625  C 3.68748521409983 4.98046875  4.36148568724864 5.453125  4.94960965223563 6.046875  C 5.54293825408091 6.63541666666667  6.0152590489709 7.30989583333333  6.36657203690561 8.0703125  Z M 10.05535841022 6.55859375  C 10.6122545540573 7.80598958333333  10.9245327655548 9.11197916666667  10.9921930447126 10.4765625  C 11.0026023184291 10.6171875  10.9557605867045 10.7395833333333  10.8516678495387 10.84375  C 10.7579843860894 10.9479166666667  10.6382777383487 11  10.4925479063165 11  L 9.37615330021292 11  C 9.24083274189733 11  9.12502957180033 10.9544270833333  9.02874378992193 10.86328125  C 8.93245800804353 10.7721354166667  8.88171279867518 10.6614583333333  8.87650816181689 10.53125  C 8.81405251951739 9.41145833333333  8.55121835817365 8.34765625  8.08800567778566 7.33984375  C 7.62479299739768 6.33203125  7.02235628105039 5.45703125  6.28069552874379 4.71484375  C 5.53903477643719 3.97265625  4.66465578424415 3.36979166666667  3.65755855216466 2.90625  C 2.65046132008517 2.44270833333333  1.58741424177904 2.17708333333333  0.468417317246274 2.109375  C 0.338301395788976 2.10416666666667  0.227702862550272 2.05338541666667  0.136621717530163 1.95703125  C 0.0455405725100544 1.86067708333333  0 1.74739583333333  0 1.6171875  L 0 0.5  C 0 0.354166666666666  0.0520463685829193 0.234375000000001  0.156139105748758 0.140625  C 0.249822569198013 0.0468750000000001  0.364324580080435 0  0.499645138396026 0  L 0.523066004258339 0  C 1.88668086113083 0.0677083333333316  3.19174355334753 0.380208333333332  4.43825408090845 0.9375  C 5.68476460846936 1.49479166666667  6.79205110007097 2.26041666666667  7.76011355571327 3.234375  C 8.73338064821386 4.203125  9.49846226638278 5.31119791666667  10.05535841022 6.55859375  Z " fill-rule="nonzero" fill="#d7d7d7" stroke="none" transform="matrix(1 0 0 1 666 486 )" />
  </g>
</svg>