<?xml version="1.0" encoding="utf-8"?>
<svg version="1.1" xmlns:xlink="http://www.w3.org/1999/xlink" width="42px" height="27px" xmlns="http://www.w3.org/2000/svg">
  <g transform="matrix(1 0 0 1 -627 -425 )">
    <path d="M 16.5484375 12.2749399038462  C 17.7807291666667 11.3608774038462  19.2645833333333 10.9038461538462  21 10.9038461538462  C 22.7354166666667 10.9038461538462  24.2192708333333 11.3608774038462  25.4515625 12.2749399038462  C 26.6838541666667 13.1890024038462  27.3 14.2896634615385  27.3 15.5769230769231  C 27.3 16.8641826923077  26.6838541666667 17.96484375  25.4515625 18.87890625  C 24.2192708333333 19.79296875  22.7354166666667 20.25  21 20.25  C 19.2645833333333 20.25  17.7807291666667 19.79296875  16.5484375 18.87890625  C 15.3161458333333 17.96484375  14.7 16.8641826923077  14.7 15.5769230769231  C 14.7 14.2896634615385  15.3161458333333 13.1890024038462  16.5484375 12.2749399038462  Z M 31.5 4.15384615384615  L 36.4 4.15384615384615  C 37.9458333333333 4.15384615384615  39.265625 4.55949519230769  40.359375 5.37079326923077  C 41.453125 6.18209134615385  42 7.16105769230769  42 8.30769230769231  L 42 22.8461538461538  C 42 23.9927884615385  41.453125 24.9717548076923  40.359375 25.7830528846154  C 39.265625 26.5943509615385  37.9458333333333 27  36.4 27  L 5.6 27  C 4.05416666666667 27  2.734375 26.5943509615385  1.640625 25.7830528846154  C 0.546875 24.9717548076923  0 23.9927884615385  0 22.8461538461538  L 0 8.30769230769231  C 0 7.16105769230769  0.546875 6.18209134615385  1.640625 5.37079326923077  C 2.734375 4.55949519230769  4.05416666666667 4.15384615384615  5.6 4.15384615384615  L 10.5 4.15384615384615  L 11.615625 1.94711538461538  C 11.8927083333333 1.41706730769231  12.3994791666667 0.960036057692306  13.1359375 0.576021634615384  C 13.8723958333333 0.192007211538464  14.6270833333333 0  15.4 0  L 26.6 0  C 27.3729166666667 0  28.1276041666667 0.192007211538464  28.8640625 0.576021634615384  C 29.6005208333333 0.960036057692306  30.1072916666667 1.41706730769231  30.384375 1.94711538461538  L 31.5 4.15384615384615  Z M 14.0765625 20.7124399038462  C 15.9942708333333 22.1349158653846  18.3020833333333 22.8461538461538  21 22.8461538461538  C 23.6979166666667 22.8461538461538  26.0057291666667 22.1349158653846  27.9234375 20.7124399038462  C 29.8411458333333 19.2899639423077  30.8 17.578125  30.8 15.5769230769231  C 30.8 13.5757211538462  29.8411458333333 11.8638822115385  27.9234375 10.44140625  C 26.0057291666667 9.01893028846154  23.6979166666667 8.30769230769231  21 8.30769230769231  C 18.3020833333333 8.30769230769231  15.9942708333333 9.01893028846154  14.0765625 10.44140625  C 12.1588541666667 11.8638822115385  11.2 13.5757211538462  11.2 15.5769230769231  C 11.2 17.578125  12.1588541666667 19.2899639423077  14.0765625 20.7124399038462  Z " fill-rule="nonzero" fill="#d7d7d7" stroke="none" transform="matrix(1 0 0 1 627 425 )" />
  </g>
</svg>