<?xml version="1.0" encoding="utf-8"?>
<svg version="1.1" xmlns:xlink="http://www.w3.org/1999/xlink" width="259px" height="145px" xmlns="http://www.w3.org/2000/svg">
  <g transform="matrix(1 0 0 1 -639 -1613 )">
    <path d="M 639 1613  L 898 1613  L 898 1758  L 639 1758  L 639 1613  " fill-rule="nonzero" fill="#cccccc" stroke="none" />
    <path d="M 649 1623  L 888 1623  L 888 1748  L 649 1748  L 649 1623  " fill-rule="nonzero" fill="#ffffff" stroke="none" />
    <path d="M 784.555 1656.5  C 778.465 1656.5  773.68 1651.715  773.68 1645.625  C 773.68 1639.535  778.465 1634.75  784.555 1634.75  C 790.645 1634.75  795.43 1639.535  795.43 1645.625  C 795.43 1651.715  790.645 1656.5  784.555 1656.5  " fill-rule="nonzero" fill="#cccccc" stroke="none" />
    <path d="M 653 1745  L 653 1680.1  L 711 1650.6  L 792.2 1705.36293436293  L 838.6 1668.3  L 885 1705.36293436293  L 885 1745  L 653 1745  " fill-rule="nonzero" fill="#169bd5" stroke="none" />
  </g>
</svg>