<?xml version="1.0" encoding="utf-8"?>
<svg version="1.1" xmlns:xlink="http://www.w3.org/1999/xlink" width="20px" height="20px" viewBox="1028 583  20 20" xmlns="http://www.w3.org/2000/svg">
  <path d="M 1038 583  C 1043.6 583  1048 587.4  1048 593  C 1048 598.6  1043.6 603  1038 603  C 1032.4 603  1028 598.6  1028 593  C 1028 587.4  1032.4 583  1038 583  Z " fill-rule="nonzero" fill="#f0f0f0" stroke="none" />
  <path d="M 1038 583.5  C 1043.32 583.5  1047.5 587.68  1047.5 593  C 1047.5 598.32  1043.32 602.5  1038 602.5  C 1032.68 602.5  1028.5 598.32  1028.5 593  C 1028.5 587.68  1032.68 583.5  1038 583.5  Z " stroke-width="1" stroke="#797979" fill="none" />
  <path d="M 1038 598  C 1035.2 598  1033 595.8  1033 593  C 1033 590.2  1035.2 588  1038 588  C 1040.8 588  1043 590.2  1043 593  C 1043 595.8  1040.8 598  1038 598  " fill-rule="nonzero" fill="#797979" stroke="none" />
</svg>