<?xml version="1.0" encoding="utf-8"?>
<svg version="1.1" xmlns:xlink="http://www.w3.org/1999/xlink" width="20px" height="20px" viewBox="1028 742  20 20" xmlns="http://www.w3.org/2000/svg">
  <path d="M 1038 742  C 1043.6 742  1048 746.4  1048 752  C 1048 757.6  1043.6 762  1038 762  C 1032.4 762  1028 757.6  1028 752  C 1028 746.4  1032.4 742  1038 742  Z " fill-rule="nonzero" fill="#ffffff" stroke="none" />
  <path d="M 1038 742.5  C 1043.32 742.5  1047.5 746.68  1047.5 752  C 1047.5 757.32  1043.32 761.5  1038 761.5  C 1032.68 761.5  1028.5 757.32  1028.5 752  C 1028.5 746.68  1032.68 742.5  1038 742.5  Z " stroke-width="1" stroke="#797979" fill="none" />
  <path d="M 1038 757  C 1035.2 757  1033 754.8  1033 752  C 1033 749.2  1035.2 747  1038 747  C 1040.8 747  1043 749.2  1043 752  C 1043 754.8  1040.8 757  1038 757  " fill-rule="nonzero" fill="#797979" stroke="none" />
</svg>