<?xml version="1.0" encoding="utf-8"?>
<svg version="1.1" xmlns:xlink="http://www.w3.org/1999/xlink" width="25px" height="25px" xmlns="http://www.w3.org/2000/svg">
  <g transform="matrix(1 0 0 1 -267 -259 )">
    <path d="M 279.5 259  C 286.5 259  292 264.5  292 271.5  C 292 278.5  286.5 284  279.5 284  C 272.5 284  267 278.5  267 271.5  C 267 264.5  272.5 259  279.5 259  Z " fill-rule="nonzero" fill="#000000" stroke="none" />
    <path d="M 279.5 259.5  C 286.22 259.5  291.5 264.78  291.5 271.5  C 291.5 278.22  286.22 283.5  279.5 283.5  C 272.78 283.5  267.5 278.22  267.5 271.5  C 267.5 264.78  272.78 259.5  279.5 259.5  Z " stroke-width="1" stroke="#797979" fill="none" />
  </g>
</svg>