<?xml version="1.0" encoding="utf-8"?>
<svg version="1.1" xmlns:xlink="http://www.w3.org/1999/xlink" width="25px" height="25px" xmlns="http://www.w3.org/2000/svg">
  <g transform="matrix(1 0 0 1 -267 -308 )">
    <path d="M 279.5 308  C 286.5 308  292 313.5  292 320.5  C 292 327.5  286.5 333  279.5 333  C 272.5 333  267 327.5  267 320.5  C 267 313.5  272.5 308  279.5 308  Z " fill-rule="nonzero" fill="#000000" stroke="none" />
    <path d="M 279.5 308.5  C 286.22 308.5  291.5 313.78  291.5 320.5  C 291.5 327.22  286.22 332.5  279.5 332.5  C 272.78 332.5  267.5 327.22  267.5 320.5  C 267.5 313.78  272.78 308.5  279.5 308.5  Z " stroke-width="1" stroke="#000000" fill="none" />
  </g>
</svg>