<?xml version="1.0" encoding="utf-8"?>
<svg version="1.1" xmlns:xlink="http://www.w3.org/1999/xlink" width="25px" height="25px" xmlns="http://www.w3.org/2000/svg">
  <g transform="matrix(1 0 0 1 -730 -251 )">
    <path d="M 742.5 251  C 749.5 251  755 256.5  755 263.5  C 755 270.5  749.5 276  742.5 276  C 735.5 276  730 270.5  730 263.5  C 730 256.5  735.5 251  742.5 251  Z " fill-rule="nonzero" fill="#ffffff" stroke="none" />
    <path d="M 742.5 251.5  C 749.22 251.5  754.5 256.78  754.5 263.5  C 754.5 270.22  749.22 275.5  742.5 275.5  C 735.78 275.5  730.5 270.22  730.5 263.5  C 730.5 256.78  735.78 251.5  742.5 251.5  Z " stroke-width="1" stroke="#aaaaaa" fill="none" />
  </g>
</svg>