<?xml version="1.0" encoding="utf-8"?>
<svg version="1.1" xmlns:xlink="http://www.w3.org/1999/xlink" width="50px" height="48px" xmlns="http://www.w3.org/2000/svg">
  <g transform="matrix(1 0 0 1 -268 -612 )">
    <path d="M 49.498997995992 42.7329192546584  C 49.8329993319973 43.064182194617  50 43.4451345755694  50 43.8757763975155  C 50 44.3064182194617  49.8329993319973 44.6873706004141  49.498997995992 45.0186335403727  L 46.9939879759519 47.5031055900621  C 46.6599866399466 47.8343685300207  46.2758851035404 48  45.8416833667335 48  C 45.4074816299265 48  45.0233800935204 47.8343685300207  44.689378757515 47.5031055900621  L 25 27.9751552795031  L 5.31062124248497 47.5031055900621  C 4.97661990647963 47.8343685300207  4.59251837007348 48  4.15831663326653 48  C 3.72411489645959 48  3.34001336005344 47.8343685300207  3.0060120240481 47.5031055900621  L 0.501002004008016 45.0186335403727  C 0.167000668002672 44.6873706004141  0 44.3064182194617  0 43.8757763975155  C 0 43.4451345755694  0.167000668002672 43.064182194617  0.501002004008016 42.7329192546584  L 23.8476953907816 19.5776397515528  C 24.1816967267869 19.2463768115942  24.5657982631931 19.0807453416149  25 19.0807453416149  C 25.4342017368069 19.0807453416149  25.8183032732131 19.2463768115942  26.1523046092184 19.5776397515528  L 49.498997995992 42.7329192546584  Z M 49.498997995992 23.6521739130435  C 49.8329993319973 23.9834368530021  50 24.3643892339545  50 24.7950310559006  C 50 25.2256728778468  49.8329993319973 25.6066252587992  49.498997995992 25.9378881987578  L 46.9939879759519 28.4223602484472  C 46.6599866399466 28.7536231884058  46.2758851035404 28.9192546583851  45.8416833667335 28.9192546583851  C 45.4074816299265 28.9192546583851  45.0233800935204 28.7536231884058  44.689378757515 28.4223602484472  L 25 8.8944099378882  L 5.31062124248497 28.4223602484472  C 4.97661990647963 28.7536231884058  4.59251837007348 28.9192546583851  4.15831663326653 28.9192546583851  C 3.72411489645959 28.9192546583851  3.34001336005344 28.7536231884058  3.0060120240481 28.4223602484472  L 0.501002004008016 25.9378881987578  C 0.167000668002672 25.6066252587992  0 25.2256728778468  0 24.7950310559006  C 0 24.3643892339545  0.167000668002672 23.9834368530021  0.501002004008016 23.6521739130435  L 23.8476953907816 0.496894409937887  C 24.1816967267869 0.165631469979292  24.5657982631931 0  25 0  C 25.4342017368069 0  25.8183032732131 0.165631469979292  26.1523046092184 0.496894409937887  L 49.498997995992 23.6521739130435  Z " fill-rule="nonzero" fill="#000000" stroke="none" transform="matrix(1 0 0 1 268 612 )" />
  </g>
</svg>