<?xml version="1.0" encoding="utf-8"?>
<svg version="1.1" xmlns:xlink="http://www.w3.org/1999/xlink" width="358px" height="22px" xmlns="http://www.w3.org/2000/svg">
  <g transform="matrix(1 0 0 1 -448 -797 )">
    <path d="M 355.928240740741 10.2704811443433  C 357.309413580247 10.4612050281751  358 10.6805374945817  358 10.9284785435631  C 358 11.1954919809276  357.309413580247 11.4243606415258  355.928240740741 11.6150845253576  L 276.372685185185 21.742522756827  C 274.162808641975 22.0095361941916  271.745756172839 22.0667533593411  269.121527777778 21.9141742522757  C 266.497299382716 21.742522756827  265.185185185185 21.4659731252709  265.185185185185 21.0845253576073  L 265.185185185185 14.6762028608583  L 6.62962962962963 14.6762028608583  C 4.69598765432099 14.6762028608583  3.10763888888889 14.5903771131339  1.86458333333333 14.4187256176853  C 0.621527777777778 14.2470741222367  0 14.0277416558301  0 13.7607282184655  L 0 8.26788036410923  C 0 8.00086692674469  0.621527777777778 7.7815344603381  1.86458333333333 7.60988296488947  C 3.10763888888889 7.43823146944083  4.69598765432099 7.35240572171652  6.62962962962963 7.35240572171652  L 265.185185185185 7.35240572171652  L 265.185185185185 0.944083224967491  C 265.185185185185 0.543563068920677  266.497299382716 0.267013437364541  269.121527777778 0.11443433029909  C 271.745756172839 -0.0381447767663659  274.162808641975 0.00953619419158902  276.372685185185 0.257477243172952  L 355.928240740741 10.2704811443433  Z " fill-rule="nonzero" fill="#02a7f0" stroke="none" transform="matrix(1 0 0 1 448 797 )" />
  </g>
</svg>